<svg width="100" height="100" viewBox="0 0 100 100" fill="none" xmlns="http://www.w3.org/2000/svg">
<g clip-path="url(#clip0_1069_778)">
<rect width="100" height="100" fill="white"/>
<rect x="5" y="17" width="90" height="67" fill="#FECB54"/>
<path d="M90.625 18.75C91.4538 18.75 92.2487 19.0792 92.8347 19.6653C93.4208 20.2513 93.75 21.0462 93.75 21.875V78.125C93.75 78.9538 93.4208 79.7487 92.8347 80.3347C92.2487 80.9208 91.4538 81.25 90.625 81.25H9.375C8.5462 81.25 7.75134 80.9208 7.16529 80.3347C6.57924 79.7487 6.25 78.9538 6.25 78.125V21.875C6.25 21.0462 6.57924 20.2513 7.16529 19.6653C7.75134 19.0792 8.5462 18.75 9.375 18.75H90.625ZM9.375 12.5C6.8886 12.5 4.50403 13.4877 2.74587 15.2459C0.98772 17.004 0 19.3886 0 21.875L0 78.125C0 80.6114 0.98772 82.996 2.74587 84.7541C4.50403 86.5123 6.8886 87.5 9.375 87.5H90.625C93.1114 87.5 95.496 86.5123 97.2541 84.7541C99.0123 82.996 100 80.6114 100 78.125V21.875C100 19.3886 99.0123 17.004 97.2541 15.2459C95.496 13.4877 93.1114 12.5 90.625 12.5H9.375Z" fill="#FECB54"/>
<path d="M43.75 34.375C43.75 33.5462 44.0793 32.7513 44.6653 32.1653C45.2514 31.5792 46.0462 31.25 46.875 31.25H78.125C78.9538 31.25 79.7487 31.5792 80.3348 32.1653C80.9208 32.7513 81.25 33.5462 81.25 34.375C81.25 35.2038 80.9208 35.9986 80.3348 36.5847C79.7487 37.1707 78.9538 37.5 78.125 37.5H46.875C46.0462 37.5 45.2514 37.1707 44.6653 36.5847C44.0793 35.9986 43.75 35.2038 43.75 34.375ZM34.4 29.0375C34.6911 29.3278 34.922 29.6726 35.0795 30.0523C35.237 30.4319 35.3181 30.8389 35.3181 31.25C35.3181 31.661 35.237 32.068 35.0795 32.4477C34.922 32.8273 34.6911 33.1722 34.4 33.4625L25.025 42.8375C24.7348 43.1285 24.3899 43.3594 24.0103 43.5169C23.6306 43.6745 23.2236 43.7556 22.8125 43.7556C22.4015 43.7556 21.9945 43.6745 21.6148 43.5169C21.2352 43.3594 20.8903 43.1285 20.6 42.8375L17.475 39.7125C17.1845 39.4219 16.954 39.077 16.7968 38.6974C16.6395 38.3177 16.5586 37.9109 16.5586 37.5C16.5586 36.6701 16.8883 35.8743 17.475 35.2875C18.0618 34.7007 18.8577 34.371 19.6875 34.371C20.5174 34.371 21.3133 34.7007 21.9 35.2875L22.8125 36.2062L29.975 29.0375C30.2653 28.7464 30.6102 28.5156 30.9898 28.358C31.3695 28.2005 31.7765 28.1194 32.1875 28.1194C32.5986 28.1194 33.0056 28.2005 33.3853 28.358C33.7649 28.5156 34.1098 28.7464 34.4 29.0375ZM43.75 59.375C43.75 58.5462 44.0793 57.7513 44.6653 57.1653C45.2514 56.5792 46.0462 56.25 46.875 56.25H78.125C78.9538 56.25 79.7487 56.5792 80.3348 57.1653C80.9208 57.7513 81.25 58.5462 81.25 59.375C81.25 60.2038 80.9208 60.9986 80.3348 61.5847C79.7487 62.1707 78.9538 62.5 78.125 62.5H46.875C46.0462 62.5 45.2514 62.1707 44.6653 61.5847C44.0793 60.9986 43.75 60.2038 43.75 59.375ZM34.4 54.0375C34.6911 54.3278 34.922 54.6726 35.0795 55.0523C35.237 55.4319 35.3181 55.8389 35.3181 56.25C35.3181 56.661 35.237 57.068 35.0795 57.4477C34.922 57.8273 34.6911 58.1722 34.4 58.4625L25.025 67.8375C24.7348 68.1285 24.3899 68.3594 24.0103 68.5169C23.6306 68.6745 23.2236 68.7556 22.8125 68.7556C22.4015 68.7556 21.9945 68.6745 21.6148 68.5169C21.2352 68.3594 20.8903 68.1285 20.6 67.8375L17.475 64.7125C17.1845 64.4219 16.954 64.077 16.7968 63.6974C16.6395 63.3177 16.5586 62.9109 16.5586 62.5C16.5586 62.0891 16.6395 61.6822 16.7968 61.3026C16.954 60.923 17.1845 60.578 17.475 60.2875C17.7656 59.9969 18.1105 59.7664 18.4901 59.6092C18.8698 59.452 19.2766 59.371 19.6875 59.371C20.0984 59.371 20.5053 59.452 20.8849 59.6092C21.2646 59.7664 21.6095 59.9969 21.9 60.2875L22.8125 61.2062L29.975 54.0375C30.2653 53.7464 30.6102 53.5156 30.9898 53.358C31.3695 53.2005 31.7765 53.1194 32.1875 53.1194C32.5986 53.1194 33.0056 53.2005 33.3853 53.358C33.7649 53.5156 34.1098 53.7464 34.4 54.0375Z" fill="white"/>
</g>
<defs>
<clipPath id="clip0_1069_778">
<rect width="100" height="100" fill="white"/>
</clipPath>
</defs>
</svg>
