<svg width="24" height="24" viewBox="0 0 24 24" fill="none" xmlns="http://www.w3.org/2000/svg">
<path d="M12 24C18.6274 24 24 18.6274 24 12C24 5.37258 18.6274 0 12 0C5.37258 0 0 5.37258 0 12C0 18.6274 5.37258 24 12 24Z" fill="#F2AD86" fill-opacity="0.2"/>
<path d="M15.645 10.8415C15.645 10.8415 15.531 10.7348 15.4495 10.7348H12.5182L13.0068 7.22866C13.0068 7.10671 12.9253 7.01524 12.8113 7C12.7299 7 12.6485 7.03049 12.5996 7.09146L9.0332 12.9299C8.96806 13.0213 9.00063 13.1585 9.11463 13.2195C9.1472 13.2348 9.19605 13.25 9.22862 13.25H12.1111L11.7202 16.7713C11.7202 16.8933 11.8017 16.9848 11.9319 17C12.0134 17 12.0948 16.9695 12.1437 16.9085L15.645 11.0701C15.645 11.0701 15.6938 10.9177 15.645 10.8567V10.8415Z" fill="#F2AD86"/>
</svg>
