<svg width="100" height="75" viewBox="0 0 100 75" fill="none" xmlns="http://www.w3.org/2000/svg">
<path d="M0.3125 9.71875C0.942614 6.95777 2.4916 4.49258 4.70576 2.72693C6.91992 0.961273 9.66803 -0.00019059 12.5 2.83384e-08H87.5C90.332 -0.00019059 93.0801 0.961273 95.2942 2.72693C97.5084 4.49258 99.0574 6.95777 99.6875 9.71875L50 40.0875L0.3125 9.71875ZM0 16.8563V61.2562L36.2687 39.0188L0 16.8563ZM42.2563 42.6875L1.19375 67.8563C2.20829 69.9955 3.80954 71.8027 5.81113 73.0674C7.81273 74.3321 10.1323 75.0023 12.5 75H87.5C89.8673 75.0005 92.186 74.3288 94.1865 73.0631C96.1869 71.7973 97.7868 69.9895 98.8 67.85L57.7375 42.6813L50 47.4125L42.2563 42.6813V42.6875ZM63.7312 39.025L100 61.2562V16.8563L63.7312 39.0188V39.025Z" fill="#FECB54"/>
</svg>
