<svg width="17" height="17" viewBox="0 0 17 17" fill="none" xmlns="http://www.w3.org/2000/svg">
<path fill-rule="evenodd" clip-rule="evenodd" d="M4.99999 0C2.23857 0 -1.14441e-05 2.23858 -1.14441e-05 5V12C-1.14441e-05 14.7614 2.23856 17 4.99999 17H12C14.7614 17 17 14.7614 17 12V5C17 2.23858 14.7614 0 12 0H4.99999ZM8.49937 3C9.96811 3 11.3485 3.60964 12.387 4.71627H12.3895C13.4279 5.82422 14 7.2953 14 8.86048C14 10.6059 13.418 11.6714 12.9305 12.2586C12.3086 13.0073 11.4555 13.4367 10.5899 13.4367C9.89473 13.4367 9.25674 13.1584 8.79287 12.6548C8.44713 12.2798 8.21333 11.7973 8.1014 11.2367C7.05923 11.1042 6.24838 10.1566 6.24838 9.01024V7.52988C6.24838 7.45964 6.30185 7.40265 6.36777 7.40265H7.00575V6.01639C7.00575 5.73675 7.21966 5.5088 7.48207 5.5088C7.74448 5.5088 7.95838 5.73542 7.95838 6.01639V7.40265H9.04284V6.01639C9.04284 5.73675 9.25674 5.5088 9.51915 5.5088C9.78156 5.5088 9.99547 5.73542 9.99547 6.01639V7.40265H10.6335C10.6994 7.40265 10.7528 7.45964 10.7528 7.52988V9.01024C10.7528 10.0904 10.0315 10.9955 9.07517 11.2063C9.32266 12.0876 9.99671 12.4202 10.5887 12.4202C11.1807 12.4202 11.7739 12.1154 12.2154 11.584C12.7576 10.9306 13.0449 9.98964 13.0449 8.86048C13.0449 6.19 11.0065 4.01651 8.49937 4.01651C5.99219 4.01651 3.95386 6.18867 3.95262 8.86048C3.95262 10.5807 4.82192 12.187 6.21977 13.0524C6.44736 13.1929 6.52447 13.5043 6.39264 13.7469C6.30434 13.9099 6.14391 14 5.97975 14C5.89891 14 5.81683 13.9775 5.74097 13.9311C4.92266 13.4248 4.23617 12.6972 3.75612 11.8278C3.26115 10.9319 2.99999 9.90615 2.99999 8.86048C2.99999 7.2953 3.57206 5.82289 4.6105 4.71627C5.64894 3.60964 7.03063 3 8.49937 3Z" fill="black"/>
</svg>
