<svg width="36" height="36" viewBox="0 0 36 36" fill="none" xmlns="http://www.w3.org/2000/svg">
<rect width="36" height="36" rx="10" fill="#FECB54"/>
<path d="M25.9581 10.7317C23.8224 8.6059 20.9833 7.43481 17.9625 7.43481C14.9418 7.43481 12.1001 8.6059 9.96431 10.7317C7.82856 12.8574 6.65198 15.6859 6.65198 18.6925C6.65198 20.7012 7.18911 22.6716 8.20711 24.3926C9.19442 26.0627 10.6063 27.4604 12.2893 28.4329C12.4454 28.522 12.6142 28.5653 12.7804 28.5653C13.1181 28.5653 13.448 28.3921 13.6296 28.079C13.9007 27.6131 13.7422 27.0148 13.2741 26.745C10.3991 25.0825 8.61124 21.997 8.61124 18.6925C8.6138 13.5601 12.806 9.38747 17.9625 9.38747C23.119 9.38747 27.3112 13.5626 27.3112 18.6925C27.3112 20.8616 26.7204 22.6691 25.6052 23.9242C24.6972 24.9451 23.4771 25.5306 22.2596 25.5306C21.0421 25.5306 19.6558 24.8916 19.1468 23.1986C21.1137 22.7938 22.5972 21.055 22.5972 18.9802V16.1365C22.5972 16.0016 22.4872 15.8921 22.3517 15.8921H21.0395V13.2291C21.0395 12.6894 20.5996 12.2541 20.0599 12.2541C19.5202 12.2541 19.0803 12.692 19.0803 13.2291V15.8921H16.8499V13.2291C16.8499 12.6894 16.4099 12.2541 15.8702 12.2541C15.3305 12.2541 14.8906 12.692 14.8906 13.2291V15.8921H13.5785C13.4429 15.8921 13.3329 16.0016 13.3329 16.1365V18.9802C13.3329 21.1823 15.0006 23.0026 17.144 23.2572C17.3742 24.3341 17.8551 25.2608 18.5661 25.9812C19.5202 26.9486 20.8323 27.4833 22.2621 27.4833C24.0424 27.4833 25.797 26.6584 27.0759 25.22C28.0785 24.0922 29.2756 22.0454 29.2756 18.6925C29.2756 15.6859 28.099 12.86 25.9633 10.7317H25.9581Z" fill="white"/>
</svg>
