<svg width="36" height="36" viewBox="0 0 36 36" fill="none" xmlns="http://www.w3.org/2000/svg">
<rect width="36" height="36" rx="10" fill="#FFA842"/>
<path d="M25.9582 10.7316C23.8224 8.60583 20.9833 7.43475 17.9625 7.43475C14.9418 7.43475 12.1001 8.60583 9.96434 10.7316C7.82859 12.8574 6.65201 15.6858 6.65201 18.6924C6.65201 20.7011 7.18914 22.6716 8.20714 24.3926C9.19445 26.0626 10.6063 27.4603 12.2894 28.4328C12.4454 28.5219 12.6142 28.5652 12.7805 28.5652C13.1181 28.5652 13.448 28.3921 13.6296 28.0789C13.9008 27.613 13.7422 27.0148 13.2741 26.7449C10.3992 25.0825 8.61127 21.9969 8.61127 18.6924C8.61383 13.56 12.806 9.3874 17.9625 9.3874C23.119 9.3874 27.3112 13.5626 27.3112 18.6924C27.3112 20.8615 26.7204 22.669 25.6052 23.9241C24.6972 24.945 23.4771 25.5305 22.2596 25.5305C21.0421 25.5305 19.6558 24.8915 19.1468 23.1986C21.1137 22.7938 22.5972 21.055 22.5972 18.9801V16.1364C22.5972 16.0015 22.4873 15.892 22.3517 15.892H21.0396V13.2291C21.0396 12.6894 20.5996 12.254 20.0599 12.254C19.5202 12.254 19.0803 12.6919 19.0803 13.2291V15.892H16.8499V13.2291C16.8499 12.6894 16.41 12.254 15.8703 12.254C15.3306 12.254 14.8906 12.6919 14.8906 13.2291V15.892H13.5785C13.4429 15.892 13.3329 16.0015 13.3329 16.1364V18.9801C13.3329 21.1823 15.0006 23.0025 17.144 23.2571C17.3742 24.334 17.8551 25.2607 18.5662 25.9812C19.5202 26.9486 20.8324 27.4832 22.2622 27.4832C24.0424 27.4832 25.797 26.6584 27.0759 25.22C28.0786 24.0922 29.2756 22.0453 29.2756 18.6924C29.2756 15.6858 28.099 12.8599 25.9633 10.7316H25.9582Z" fill="white"/>
</svg>
