<svg width="32" height="32" viewBox="0 0 32 32" fill="none" xmlns="http://www.w3.org/2000/svg">
<path d="M18.4934 6.39636L18.4934 6.39637L24.0489 10.971L24.049 10.971C24.9666 11.7266 25.5 12.859 25.5 14.0559V22.7409C25.5 24.9436 23.7301 26.7222 21.5556 26.7222H10.4444C8.26987 26.7222 6.5 24.9436 6.5 22.7409V14.0559C6.5 12.859 7.03344 11.7266 7.95101 10.971L13.5066 6.39637C14.958 5.20121 17.042 5.20121 18.4934 6.39636ZM13.7778 21.4444C13.0414 21.4444 12.4444 22.0414 12.4444 22.7778C12.4444 23.5141 13.0414 24.1111 13.7778 24.1111H18.2222C18.9586 24.1111 19.5556 23.5141 19.5556 22.7778C19.5556 22.0414 18.9586 21.4444 18.2222 21.4444H13.7778Z" fill="#2D2D2D" stroke="#2D2D2D"/>
</svg>
