<svg width="32" height="32" viewBox="0 0 32 32" fill="none" xmlns="http://www.w3.org/2000/svg">
<path d="M24.0489 10.971L24.049 10.971C24.9666 11.7266 25.5 12.859 25.5 14.0559V22.7409C25.5 24.9436 23.7301 26.7222 21.5556 26.7222H10.4444C8.26987 26.7222 6.5 24.9436 6.5 22.7409V14.0559C6.5 12.859 7.03344 11.7266 7.95101 10.971L13.5066 6.39637C14.958 5.20121 17.042 5.20121 18.4934 6.39636L18.4934 6.39637L24.0489 10.971Z" fill="#2D2D2D" stroke="#2D2D2D"/>
<path d="M15.98 22.66C16.5323 22.66 16.98 22.2123 16.98 21.66C16.98 21.1077 16.5323 20.66 15.98 20.66C15.4277 20.66 14.98 21.1077 14.98 21.66C14.98 22.2123 15.4277 22.66 15.98 22.66Z" fill="white"/>
<path d="M10.5 18C11.66 16.2 13.68 15 15.98 15C18.28 15 20.3 16.2 21.46 18" stroke="white" stroke-miterlimit="10" stroke-linecap="round"/>
<path d="M12.97 19.74C13.58 18.7 14.71 18 15.99 18C17.27 18 18.34 18.66 18.96 19.64" stroke="white" stroke-miterlimit="10" stroke-linecap="round"/>
</svg>
