<svg width="32" height="32" viewBox="0 0 32 32" fill="none" xmlns="http://www.w3.org/2000/svg">
<path d="M7.00534 10.296L15.2245 5.58436C15.8538 5.22361 16.6291 5.23187 17.2506 5.60594L25.0314 10.2893C25.6324 10.6511 26 11.3013 26 12.0029V20.9971C26 21.6987 25.6324 22.3489 25.0314 22.7107L17.2506 27.3941C16.6291 27.7681 15.8538 27.7764 15.2245 27.4156L7.00534 22.704C6.38353 22.3475 6 21.6856 6 20.9688V12.0311C6 11.3144 6.38353 10.6525 7.00534 10.296Z" fill="#2D2D2D" stroke="#2D2D2D"/>
<path d="M8 13L14.9059 16.7269C15.5842 17.091 16.4158 17.091 17.0941 16.7269L24 13" stroke="white" stroke-miterlimit="10" stroke-linecap="round"/>
<path d="M16 25V17" stroke="white" stroke-miterlimit="10" stroke-linecap="round"/>
</svg>
