<svg width="15" height="15" viewBox="0 0 15 15" fill="none" xmlns="http://www.w3.org/2000/svg">
<circle cx="7.5" cy="7.5" r="7.5" fill="#6D6CE7" fill-opacity="0.2"/>
<path d="M8.05078 3.89062L7.90918 8.86621H6.82031L6.67871 3.89062H8.05078ZM6.63965 10.3994C6.63965 10.2074 6.70475 10.0462 6.83496 9.91602C6.96842 9.78255 7.14746 9.71582 7.37207 9.71582C7.59668 9.71582 7.77409 9.78255 7.9043 9.91602C8.03776 10.0462 8.10449 10.2074 8.10449 10.3994C8.10449 10.5882 8.03776 10.7477 7.9043 10.8779C7.77409 11.0081 7.59668 11.0732 7.37207 11.0732C7.14746 11.0732 6.96842 11.0081 6.83496 10.8779C6.70475 10.7477 6.63965 10.5882 6.63965 10.3994Z" fill="#6D6CE7"/>
</svg>
