<svg width="100" height="100" viewBox="0 0 100 100" fill="none" xmlns="http://www.w3.org/2000/svg">
<g clip-path="url(#clip0_1072_753)">
<path fill-rule="evenodd" clip-rule="evenodd" d="M99.0875 32.1625C99.3785 32.4528 99.6094 32.7976 99.767 33.1773C99.9245 33.5569 100.006 33.964 100.006 34.375C100.006 34.786 99.9245 35.1931 99.767 35.5727C99.6094 35.9524 99.3785 36.2972 99.0875 36.5875L80.3375 55.3375C80.0472 55.6285 79.7024 55.8594 79.3227 56.017C78.9431 56.1745 78.536 56.2556 78.125 56.2556C77.714 56.2556 77.307 56.1745 76.9273 56.017C76.5476 55.8594 76.2028 55.6285 75.9125 55.3375L66.5375 45.9625C65.9507 45.3757 65.6211 44.5798 65.6211 43.75C65.6211 42.9202 65.9507 42.1243 66.5375 41.5375C67.1243 40.9507 67.9202 40.6211 68.75 40.6211C69.5798 40.6211 70.3757 40.9507 70.9625 41.5375L78.125 48.7063L94.6625 32.1625C94.9528 31.8715 95.2976 31.6406 95.6773 31.483C96.057 31.3255 96.464 31.2444 96.875 31.2444C97.286 31.2444 97.6931 31.3255 98.0727 31.483C98.4524 31.6406 98.7972 31.8715 99.0875 32.1625V32.1625Z" fill="#FECB54"/>
<path d="M6.25 87.5C6.25 87.5 0 87.5 0 81.25C0 75 6.25 56.25 37.5 56.25C68.75 56.25 75 75 75 81.25C75 87.5 68.75 87.5 68.75 87.5H6.25ZM37.5 50C42.4728 50 47.2419 48.0246 50.7583 44.5083C54.2746 40.9919 56.25 36.2228 56.25 31.25C56.25 26.2772 54.2746 21.5081 50.7583 17.9917C47.2419 14.4754 42.4728 12.5 37.5 12.5C32.5272 12.5 27.7581 14.4754 24.2417 17.9917C20.7254 21.5081 18.75 26.2772 18.75 31.25C18.75 36.2228 20.7254 40.9919 24.2417 44.5083C27.7581 48.0246 32.5272 50 37.5 50V50Z" fill="#FECB54"/>
</g>
<defs>
<clipPath id="clip0_1072_753">
<rect width="100" height="100" fill="white"/>
</clipPath>
</defs>
</svg>
