<svg width="60" height="30" viewBox="0 0 60 30" fill="none" xmlns="http://www.w3.org/2000/svg">
<mask id="path-1-inside-1_155_1645" fill="white">
<path fill-rule="evenodd" clip-rule="evenodd" d="M11.0741 0C4.99893 0 0.0740585 4.92487 0.0740585 11C0.0740585 17.0751 4.99893 22 11.0741 22H23.1325L28.2864 28.9226C28.6863 29.4597 29.4908 29.4597 29.8907 28.9226L35.0447 22H48.3926C54.4677 22 59.3926 17.0751 59.3926 11C59.3926 4.92487 54.4677 0 48.3926 0H11.0741Z"/>
</mask>
<path fill-rule="evenodd" clip-rule="evenodd" d="M11.0741 0C4.99893 0 0.0740585 4.92487 0.0740585 11C0.0740585 17.0751 4.99893 22 11.0741 22H23.1325L28.2864 28.9226C28.6863 29.4597 29.4908 29.4597 29.8907 28.9226L35.0447 22H48.3926C54.4677 22 59.3926 17.0751 59.3926 11C59.3926 4.92487 54.4677 0 48.3926 0H11.0741Z" fill="#1A1A1A"/>
<path d="M23.1325 22L23.9346 21.4028L23.6347 21H23.1325V22ZM28.2864 28.9226L27.4843 29.5198H27.4843L28.2864 28.9226ZM29.8907 28.9226L30.6928 29.5198H30.6928L29.8907 28.9226ZM35.0447 22V21H34.5424L34.2425 21.4028L35.0447 22ZM1.07406 11C1.07406 5.47715 5.55121 1 11.0741 1V-1C4.44664 -1 -0.925941 4.37258 -0.925941 11H1.07406ZM11.0741 21C5.55122 21 1.07406 16.5228 1.07406 11H-0.925941C-0.925941 17.6274 4.44665 23 11.0741 23V21ZM23.1325 21H11.0741V23H23.1325V21ZM29.0886 28.3255L23.9346 21.4028L22.3303 22.5972L27.4843 29.5198L29.0886 28.3255ZM29.0886 28.3255H29.0886L27.4843 29.5198C28.2841 30.594 29.893 30.594 30.6928 29.5198L29.0886 28.3255ZM34.2425 21.4028L29.0886 28.3255L30.6928 29.5198L35.8468 22.5972L34.2425 21.4028ZM48.3926 21H35.0447V23H48.3926V21ZM58.3926 11C58.3926 16.5228 53.9154 21 48.3926 21V23C55.02 23 60.3926 17.6274 60.3926 11H58.3926ZM48.3926 1C53.9154 1 58.3926 5.47715 58.3926 11H60.3926C60.3926 4.37258 55.02 -1 48.3926 -1V1ZM11.0741 1H48.3926V-1H11.0741V1Z" fill="#3BB682" mask="url(#path-1-inside-1_155_1645)"/>
<path d="M19.0349 6.75V13.64H19.8649V6.75H19.0349ZM17.5049 9.14V9.82H19.3849V9.14H17.5049ZM17.5049 11.05V11.72H19.3849V11.05H17.5049ZM12.4449 7.84V8.51H17.5049V7.84H12.4449ZM15.0049 9.01C13.7949 9.01 12.9549 9.7 12.9549 10.74C12.9549 11.77 13.7949 12.47 15.0049 12.47C16.2049 12.47 17.0449 11.77 17.0449 10.74C17.0449 9.7 16.2049 9.01 15.0049 9.01ZM15.0049 9.66C15.7549 9.66 16.2649 10.1 16.2649 10.74C16.2649 11.38 15.7549 11.81 15.0049 11.81C14.2549 11.81 13.7449 11.38 13.7449 10.74C13.7449 10.1 14.2549 9.66 15.0049 9.66ZM14.5949 6.73V8.27H15.4249V6.73H14.5949ZM14.0549 14.9V15.58H20.0849V14.9H14.0549ZM14.0549 13.05V15.23H14.8849V13.05H14.0549ZM28.2441 6.74V15.78H29.0341V6.74H28.2441ZM26.8141 10.38V11.08H28.5541V10.38H26.8141ZM26.2741 6.93V15.33H27.0541V6.93H26.2741ZM23.1941 8.14V9.18C23.1941 11.02 22.5341 12.56 21.2341 13.28L21.7441 13.92C23.1341 13.09 23.8441 11.35 23.8441 9.18V8.14H23.1941ZM23.3441 8.14V9.18C23.3441 11.17 24.0641 12.84 25.4441 13.6L25.9341 12.96C24.6641 12.31 23.9941 10.84 23.9941 9.18V8.14H23.3441ZM21.4441 7.8V8.49H25.6441V7.8H21.4441ZM33.1833 7.16C31.8433 7.16 30.8833 7.91 30.8833 9.02C30.8833 10.12 31.8433 10.89 33.1833 10.89C34.5333 10.89 35.4933 10.12 35.4933 9.02C35.4933 7.91 34.5333 7.16 33.1833 7.16ZM33.1833 7.85C34.0633 7.85 34.6933 8.33 34.6933 9.02C34.6933 9.72 34.0633 10.19 33.1833 10.19C32.3033 10.19 31.6733 9.72 31.6733 9.02C31.6733 8.33 32.3033 7.85 33.1833 7.85ZM32.8133 11.89V15.5H33.6433V11.89H32.8133ZM36.8133 6.74V15.79H37.6333V6.74H36.8133ZM30.3233 12.34C31.9733 12.34 34.1933 12.31 36.2333 11.94L36.1733 11.32C34.1833 11.62 31.8933 11.64 30.2133 11.64L30.3233 12.34ZM45.7026 6.74V15.78H46.5326V6.74H45.7026ZM41.6326 8.89V9.66C41.6326 11.24 40.6326 12.78 39.2926 13.4L39.7626 14.04C41.2126 13.34 42.3026 11.59 42.3026 9.66V8.89H41.6326ZM41.7926 8.89V9.66C41.7926 11.53 42.9026 13.22 44.3626 13.88L44.8326 13.23C43.4826 12.64 42.4526 11.17 42.4526 9.66V8.89H41.7926ZM39.5426 8.31V8.98H44.5226V8.31H39.5426ZM41.6326 6.9V8.68H42.4626V6.9H41.6326Z" fill="#3BB682"/>
</svg>
