<svg width="60" height="30" viewBox="0 0 60 30" fill="none" xmlns="http://www.w3.org/2000/svg">
<mask id="path-1-inside-1_214_501" fill="white">
<path fill-rule="evenodd" clip-rule="evenodd" d="M11 0C4.92487 0 0 4.92487 0 11C0 17.0751 4.92488 22 11 22H23.0584L28.2123 28.9226C28.6122 29.4597 29.4167 29.4597 29.8166 28.9226L34.9706 22H48.3185C54.3937 22 59.3185 17.0751 59.3185 11C59.3185 4.92487 54.3936 0 48.3185 0H11Z"/>
</mask>
<path d="M23.0584 22L23.8605 21.4028L23.5606 21H23.0584V22ZM28.2123 28.9226L27.4102 29.5198L27.4102 29.5198L28.2123 28.9226ZM29.8166 28.9226L30.6187 29.5198L30.6187 29.5198L29.8166 28.9226ZM34.9706 22V21H34.4684L34.1684 21.4028L34.9706 22ZM1 11C1 5.47715 5.47715 1 11 1V-1C4.37258 -1 -1 4.37258 -1 11H1ZM11 21C5.47716 21 1 16.5228 1 11H-1C-1 17.6274 4.37259 23 11 23V21ZM23.0584 21H11V23H23.0584V21ZM29.0145 28.3255L23.8605 21.4028L22.2563 22.5972L27.4102 29.5198L29.0145 28.3255ZM29.0145 28.3255H29.0145L27.4102 29.5198C28.21 30.594 29.8189 30.594 30.6187 29.5198L29.0145 28.3255ZM34.1684 21.4028L29.0145 28.3255L30.6187 29.5198L35.7727 22.5972L34.1684 21.4028ZM48.3185 21H34.9706V23H48.3185V21ZM58.3185 11C58.3185 16.5228 53.8414 21 48.3185 21V23C54.9459 23 60.3185 17.6274 60.3185 11H58.3185ZM48.3185 1C53.8414 1 58.3185 5.47715 58.3185 11H60.3185C60.3185 4.37258 54.9459 -1 48.3185 -1V1ZM11 1H48.3185V-1H11V1Z" fill="#D9D9D9" fill-opacity="0.01" mask="url(#path-1-inside-1_214_501)"/>
</svg>
