<svg width="61" height="30" viewBox="0 0 61 30" fill="none" xmlns="http://www.w3.org/2000/svg">
<mask id="path-1-inside-1_155_1640" fill="white">
<path fill-rule="evenodd" clip-rule="evenodd" d="M11.9334 0C5.85823 0 0.933365 4.92487 0.933365 11C0.933365 17.0751 5.85824 22 11.9334 22H23.9917L29.1457 28.9226C29.5456 29.4597 30.3501 29.4597 30.7499 28.9226L35.9039 22H49.2519C55.327 22 60.2519 17.0751 60.2519 11C60.2519 4.92487 55.327 0 49.2519 0H11.9334Z"/>
</mask>
<path fill-rule="evenodd" clip-rule="evenodd" d="M11.9334 0C5.85823 0 0.933365 4.92487 0.933365 11C0.933365 17.0751 5.85824 22 11.9334 22H23.9917L29.1457 28.9226C29.5456 29.4597 30.3501 29.4597 30.7499 28.9226L35.9039 22H49.2519C55.327 22 60.2519 17.0751 60.2519 11C60.2519 4.92487 55.327 0 49.2519 0H11.9334Z" fill="#1A1A1A"/>
<path d="M23.9917 22L24.7938 21.4028L24.4939 21H23.9917V22ZM29.1457 28.9226L28.3436 29.5198H28.3436L29.1457 28.9226ZM30.7499 28.9226L31.552 29.5198H31.552L30.7499 28.9226ZM35.9039 22V21H35.4017L35.1018 21.4028L35.9039 22ZM1.93336 11C1.93336 5.47715 6.41052 1 11.9334 1V-1C5.30595 -1 -0.0666351 4.37258 -0.0666351 11H1.93336ZM11.9334 21C6.41052 21 1.93336 16.5228 1.93336 11H-0.0666351C-0.0666351 17.6274 5.30596 23 11.9334 23V21ZM23.9917 21H11.9334V23H23.9917V21ZM29.9478 28.3255L24.7938 21.4028L23.1896 22.5972L28.3436 29.5198L29.9478 28.3255ZM29.9478 28.3255H29.9478L28.3436 29.5198C29.1434 30.594 30.7523 30.594 31.552 29.5198L29.9478 28.3255ZM35.1018 21.4028L29.9478 28.3255L31.552 29.5198L36.706 22.5972L35.1018 21.4028ZM49.2519 21H35.9039V23H49.2519V21ZM59.2519 11C59.2519 16.5228 54.7747 21 49.2519 21V23C55.8793 23 61.2519 17.6274 61.2519 11H59.2519ZM49.2519 1C54.7747 1 59.2519 5.47715 59.2519 11H61.2519C61.2519 4.37258 55.8793 -1 49.2519 -1V1ZM11.9334 1H49.2519V-1H11.9334V1Z" fill="#4D4D4D" mask="url(#path-1-inside-1_155_1640)"/>
<path d="M16.7442 8.92V9.61H18.5042V8.92H16.7442ZM16.7442 11.67V12.36H18.5042V11.67H16.7442ZM20.0242 6.74V15.78H20.8242V6.74H20.0242ZM18.2542 6.93V15.33H19.0342V6.93H18.2542ZM15.1742 7.49C14.0042 7.49 13.2542 8.7 13.2542 10.64C13.2542 12.58 14.0042 13.79 15.1742 13.79C16.3442 13.79 17.1042 12.58 17.1042 10.64C17.1042 8.7 16.3442 7.49 15.1742 7.49ZM15.1742 8.26C15.8942 8.26 16.3442 9.18 16.3442 10.64C16.3442 12.1 15.8942 13.02 15.1742 13.02C14.4642 13.02 14.0042 12.1 14.0042 10.64C14.0042 9.18 14.4642 8.26 15.1742 8.26ZM24.2334 7.21V8.13C24.2334 9.51 23.3534 10.73 21.9934 11.23L22.4334 11.9C23.9434 11.31 24.9234 9.87 24.9234 8.13V7.21H24.2334ZM24.3834 7.21V8.19C24.3834 9.76 25.3734 11.1 26.8234 11.64L27.2634 10.99C25.9634 10.54 25.0634 9.41 25.0634 8.19V7.21H24.3834ZM28.2234 6.74V12.22H29.0534V6.74H28.2234ZM28.8234 9.07V9.77H30.3934V9.07H28.8234ZM26.1734 12.47C24.3234 12.47 23.2034 13.08 23.2034 14.12C23.2034 15.16 24.3234 15.76 26.1734 15.76C28.0234 15.76 29.1434 15.16 29.1434 14.12C29.1434 13.08 28.0234 12.47 26.1734 12.47ZM26.1734 13.13C27.5134 13.13 28.3334 13.49 28.3334 14.12C28.3334 14.75 27.5134 15.11 26.1734 15.11C24.8334 15.11 24.0134 14.75 24.0134 14.12C24.0134 13.49 24.8334 13.13 26.1734 13.13ZM33.8926 7.16C32.5526 7.16 31.5926 7.91 31.5926 9.02C31.5926 10.12 32.5526 10.89 33.8926 10.89C35.2426 10.89 36.2026 10.12 36.2026 9.02C36.2026 7.91 35.2426 7.16 33.8926 7.16ZM33.8926 7.85C34.7726 7.85 35.4026 8.33 35.4026 9.02C35.4026 9.72 34.7726 10.19 33.8926 10.19C33.0126 10.19 32.3826 9.72 32.3826 9.02C32.3826 8.33 33.0126 7.85 33.8926 7.85ZM33.5226 11.89V15.5H34.3526V11.89H33.5226ZM37.5226 6.74V15.79H38.3426V6.74H37.5226ZM31.0326 12.34C32.6826 12.34 34.9026 12.31 36.9426 11.94L36.8826 11.32C34.8926 11.62 32.6026 11.64 30.9226 11.64L31.0326 12.34ZM46.4118 6.74V15.78H47.2418V6.74H46.4118ZM42.3418 8.89V9.66C42.3418 11.24 41.3418 12.78 40.0018 13.4L40.4718 14.04C41.9218 13.34 43.0118 11.59 43.0118 9.66V8.89H42.3418ZM42.5018 8.89V9.66C42.5018 11.53 43.6118 13.22 45.0718 13.88L45.5418 13.23C44.1918 12.64 43.1618 11.17 43.1618 9.66V8.89H42.5018ZM40.2518 8.31V8.98H45.2318V8.31H40.2518ZM42.3418 6.9V8.68H43.1718V6.9H42.3418Z" fill="#DCDCDC"/>
</svg>
