<svg width="60" height="30" viewBox="0 0 60 30" fill="none" xmlns="http://www.w3.org/2000/svg">
<mask id="path-1-inside-1_155_1272" fill="white">
<path fill-rule="evenodd" clip-rule="evenodd" d="M11 0C4.92487 0 0 4.92487 0 11C0 17.0751 4.92488 22 11 22H23.0584L28.2124 28.9226C28.6123 29.4597 29.4167 29.4597 29.8166 28.9226L34.9706 22H48.3185C54.3937 22 59.3185 17.0751 59.3185 11C59.3185 4.92487 54.3936 0 48.3185 0H11Z"/>
</mask>
<path fill-rule="evenodd" clip-rule="evenodd" d="M11 0C4.92487 0 0 4.92487 0 11C0 17.0751 4.92488 22 11 22H23.0584L28.2124 28.9226C28.6123 29.4597 29.4167 29.4597 29.8166 28.9226L34.9706 22H48.3185C54.3937 22 59.3185 17.0751 59.3185 11C59.3185 4.92487 54.3936 0 48.3185 0H11Z" fill="white"/>
<path d="M23.0584 22L23.8605 21.4028L23.5606 21H23.0584V22ZM28.2124 28.9226L27.4103 29.5198H27.4103L28.2124 28.9226ZM29.8166 28.9226L30.6187 29.5198H30.6187L29.8166 28.9226ZM34.9706 22V21H34.4684L34.1685 21.4028L34.9706 22ZM1 11C1 5.47715 5.47715 1 11 1V-1C4.37258 -1 -1 4.37258 -1 11H1ZM11 21C5.47716 21 1 16.5228 1 11H-1C-1 17.6274 4.37259 23 11 23V21ZM23.0584 21H11V23H23.0584V21ZM29.0145 28.3255L23.8605 21.4028L22.2563 22.5972L27.4103 29.5198L29.0145 28.3255ZM29.0145 28.3255H29.0145L27.4103 29.5198C28.21 30.594 29.819 30.594 30.6187 29.5198L29.0145 28.3255ZM34.1685 21.4028L29.0145 28.3255L30.6187 29.5198L35.7727 22.5972L34.1685 21.4028ZM48.3185 21H34.9706V23H48.3185V21ZM58.3185 11C58.3185 16.5228 53.8414 21 48.3185 21V23C54.9459 23 60.3185 17.6274 60.3185 11H58.3185ZM48.3185 1C53.8414 1 58.3185 5.47715 58.3185 11H60.3185C60.3185 4.37258 54.9459 -1 48.3185 -1V1ZM11 1H48.3185V-1H11V1Z" fill="#FF5D5D" mask="url(#path-1-inside-1_155_1272)"/>
<path d="M18.9608 6.75V13.64H19.7908V6.75H18.9608ZM17.4308 9.14V9.82H19.3109V9.14H17.4308ZM17.4308 11.05V11.72H19.3109V11.05H17.4308ZM12.3708 7.84V8.51H17.4308V7.84H12.3708ZM14.9308 9.01C13.7208 9.01 12.8808 9.7 12.8808 10.74C12.8808 11.77 13.7208 12.47 14.9308 12.47C16.1308 12.47 16.9708 11.77 16.9708 10.74C16.9708 9.7 16.1308 9.01 14.9308 9.01ZM14.9308 9.66C15.6808 9.66 16.1908 10.1 16.1908 10.74C16.1908 11.38 15.6808 11.81 14.9308 11.81C14.1808 11.81 13.6708 11.38 13.6708 10.74C13.6708 10.1 14.1808 9.66 14.9308 9.66ZM14.5208 6.73V8.27H15.3508V6.73H14.5208ZM13.9808 14.9V15.58H20.0108V14.9H13.9808ZM13.9808 13.05V15.23H14.8108V13.05H13.9808ZM28.1701 6.74V15.78H28.9601V6.74H28.1701ZM26.7401 10.38V11.08H28.4801V10.38H26.7401ZM26.2001 6.93V15.33H26.9801V6.93H26.2001ZM23.1201 8.14V9.18C23.1201 11.02 22.4601 12.56 21.1601 13.28L21.6701 13.92C23.0601 13.09 23.7701 11.35 23.7701 9.18V8.14H23.1201ZM23.2701 8.14V9.18C23.2701 11.17 23.9901 12.84 25.3701 13.6L25.8601 12.96C24.5901 12.31 23.9201 10.84 23.9201 9.18V8.14H23.2701ZM21.3701 7.8V8.49H25.5701V7.8H21.3701ZM33.1093 7.16C31.7693 7.16 30.8093 7.91 30.8093 9.02C30.8093 10.12 31.7693 10.89 33.1093 10.89C34.4593 10.89 35.4193 10.12 35.4193 9.02C35.4193 7.91 34.4593 7.16 33.1093 7.16ZM33.1093 7.85C33.9893 7.85 34.6193 8.33 34.6193 9.02C34.6193 9.72 33.9893 10.19 33.1093 10.19C32.2293 10.19 31.5993 9.72 31.5993 9.02C31.5993 8.33 32.2293 7.85 33.1093 7.85ZM32.7393 11.89V15.5H33.5693V11.89H32.7393ZM36.7393 6.74V15.79H37.5593V6.74H36.7393ZM30.2493 12.34C31.8993 12.34 34.1193 12.31 36.1593 11.94L36.0993 11.32C34.1093 11.62 31.8193 11.64 30.1393 11.64L30.2493 12.34ZM45.6285 6.74V15.78H46.4585V6.74H45.6285ZM41.5585 8.89V9.66C41.5585 11.24 40.5585 12.78 39.2185 13.4L39.6885 14.04C41.1385 13.34 42.2285 11.59 42.2285 9.66V8.89H41.5585ZM41.7185 8.89V9.66C41.7185 11.53 42.8285 13.22 44.2885 13.88L44.7585 13.23C43.4085 12.64 42.3785 11.17 42.3785 9.66V8.89H41.7185ZM39.4685 8.31V8.98H44.4485V8.31H39.4685ZM41.5585 6.9V8.68H42.3885V6.9H41.5585Z" fill="#FF5D5D"/>
</svg>
