<svg width="60" height="30" viewBox="0 0 60 30" fill="none" xmlns="http://www.w3.org/2000/svg">
<mask id="path-1-inside-1_155_1273" fill="white">
<path fill-rule="evenodd" clip-rule="evenodd" d="M11.0741 0C4.99893 0 0.0740662 4.92487 0.0740662 11C0.0740662 17.0751 4.99894 22 11.0741 22H23.1325L28.2865 28.9226C28.6863 29.4597 29.4908 29.4597 29.8907 28.9226L35.0447 22H48.3926C54.4677 22 59.3926 17.0751 59.3926 11C59.3926 4.92487 54.4677 0 48.3926 0H11.0741Z"/>
</mask>
<path fill-rule="evenodd" clip-rule="evenodd" d="M11.0741 0C4.99893 0 0.0740662 4.92487 0.0740662 11C0.0740662 17.0751 4.99894 22 11.0741 22H23.1325L28.2865 28.9226C28.6863 29.4597 29.4908 29.4597 29.8907 28.9226L35.0447 22H48.3926C54.4677 22 59.3926 17.0751 59.3926 11C59.3926 4.92487 54.4677 0 48.3926 0H11.0741Z" fill="white"/>
<path d="M23.1325 22L23.9346 21.4028L23.6347 21H23.1325V22ZM28.2865 28.9226L27.4843 29.5198H27.4843L28.2865 28.9226ZM29.8907 28.9226L30.6928 29.5198H30.6928L29.8907 28.9226ZM35.0447 22V21H34.5425L34.2425 21.4028L35.0447 22ZM1.07407 11C1.07407 5.47715 5.55122 1 11.0741 1V-1C4.44665 -1 -0.925934 4.37258 -0.925934 11H1.07407ZM11.0741 21C5.55123 21 1.07407 16.5228 1.07407 11H-0.925934C-0.925934 17.6274 4.44666 23 11.0741 23V21ZM23.1325 21H11.0741V23H23.1325V21ZM29.0886 28.3255L23.9346 21.4028L22.3304 22.5972L27.4843 29.5198L29.0886 28.3255ZM29.0886 28.3255H29.0886L27.4843 29.5198C28.2841 30.594 29.893 30.594 30.6928 29.5198L29.0886 28.3255ZM34.2425 21.4028L29.0886 28.3255L30.6928 29.5198L35.8468 22.5972L34.2425 21.4028ZM48.3926 21H35.0447V23H48.3926V21ZM58.3926 11C58.3926 16.5228 53.9154 21 48.3926 21V23C55.02 23 60.3926 17.6274 60.3926 11H58.3926ZM48.3926 1C53.9154 1 58.3926 5.47715 58.3926 11H60.3926C60.3926 4.37258 55.02 -1 48.3926 -1V1ZM11.0741 1H48.3926V-1H11.0741V1Z" fill="#3BB682" mask="url(#path-1-inside-1_155_1273)"/>
</svg>
