<svg width="38" height="38" viewBox="0 0 38 38" fill="none" xmlns="http://www.w3.org/2000/svg">
<path d="M17.9736 11.4591H20.0253C20.251 11.4591 20.434 11.2761 20.434 11.0504C20.434 10.8247 20.251 10.6417 20.0253 10.6417H17.9736C17.7479 10.6417 17.5649 10.8247 17.5649 11.0504C17.5649 11.2761 17.7479 11.4591 17.9736 11.4591Z" fill="black"/>
<path d="M25.3653 9C24.8847 9 13.0533 9 12.6347 9C11.7333 9 11 9.73332 11 10.6347V26.6481C11 27.4101 11.5242 28.052 12.231 28.2322V28.2894C12.231 29.1908 12.9643 29.9241 13.8657 29.9241H24.1343C25.0357 29.9241 25.769 29.1908 25.769 28.2894V28.2322C26.4758 28.052 27 27.4101 27 26.6481V10.6347C27 9.73332 26.2666 9 25.3653 9ZM24.0263 9.81735L23.4592 12.2827H14.5408L13.9737 9.81735H24.0263ZM24.9516 28.2894C24.9516 28.7401 24.585 29.1068 24.1343 29.1068H13.8657C13.415 29.1068 13.0484 28.7401 13.0484 28.2894V28.2828H24.9516V28.2894ZM26.1827 26.6481C26.1827 27.0987 25.816 27.4654 25.3653 27.4654C24.6999 27.4654 13.2143 27.4654 12.6347 27.4654C12.184 27.4654 11.8173 27.0987 11.8173 26.6481V10.6347C11.8173 10.184 12.184 9.81735 12.6347 9.81735H13.135L13.8171 12.783C13.8598 12.9686 14.025 13.1001 14.2154 13.1001H23.7846C23.975 13.1001 24.1401 12.9686 24.1828 12.783L24.865 9.81735H25.3653C25.816 9.81735 26.1827 10.184 26.1827 10.6347V26.6481Z" fill="black"/>
<path d="M15.1025 17.4121H14.6921C14.4664 17.4121 14.2834 17.5951 14.2834 17.8208C14.2834 18.0465 14.4664 18.2295 14.6921 18.2295H15.1025C15.3281 18.2295 15.5111 18.0465 15.5111 17.8208C15.5111 17.5951 15.3282 17.4121 15.1025 17.4121Z" fill="black"/>
<path d="M17.1528 17.4121H16.7424C16.5167 17.4121 16.3337 17.5951 16.3337 17.8208C16.3337 18.0465 16.5167 18.2295 16.7424 18.2295H17.1528C17.3784 18.2295 17.5614 18.0465 17.5614 17.8208C17.5614 17.5951 17.3785 17.4121 17.1528 17.4121Z" fill="black"/>
<path d="M19.2048 17.4121H18.7944C18.5687 17.4121 18.3857 17.5951 18.3857 17.8208C18.3857 18.0465 18.5687 18.2295 18.7944 18.2295H19.2048C19.4304 18.2295 19.6134 18.0465 19.6134 17.8208C19.6134 17.5951 19.4304 17.4121 19.2048 17.4121Z" fill="black"/>
<path d="M23.309 17.4121H22.8987C22.673 17.4121 22.49 17.5951 22.49 17.8208C22.49 18.0465 22.673 18.2295 22.8987 18.2295H23.309C23.5347 18.2295 23.7177 18.0465 23.7177 17.8208C23.7177 17.5951 23.5347 17.4121 23.309 17.4121Z" fill="black"/>
<path d="M21.2568 17.4121H20.8464C20.6207 17.4121 20.4377 17.5951 20.4377 17.8208C20.4377 18.0465 20.6207 18.2295 20.8464 18.2295H21.2568C21.4824 18.2295 21.6654 18.0465 21.6654 17.8208C21.6654 17.5951 21.4824 17.4121 21.2568 17.4121Z" fill="black"/>
<path d="M15.1025 19.0536H14.6921C14.4664 19.0536 14.2834 19.2366 14.2834 19.4623C14.2834 19.6879 14.4664 19.8709 14.6921 19.8709H15.1025C15.3281 19.8709 15.5111 19.6879 15.5111 19.4623C15.5111 19.2366 15.3282 19.0536 15.1025 19.0536Z" fill="black"/>
<path d="M17.1528 19.0536H16.7424C16.5167 19.0536 16.3337 19.2366 16.3337 19.4623C16.3337 19.6879 16.5167 19.8709 16.7424 19.8709H17.1528C17.3784 19.8709 17.5614 19.6879 17.5614 19.4623C17.5614 19.2366 17.3785 19.0536 17.1528 19.0536Z" fill="black"/>
<path d="M19.2048 19.0536H18.7944C18.5687 19.0536 18.3857 19.2366 18.3857 19.4623C18.3857 19.6879 18.5687 19.8709 18.7944 19.8709H19.2048C19.4304 19.8709 19.6134 19.6879 19.6134 19.4623C19.6134 19.2366 19.4304 19.0536 19.2048 19.0536Z" fill="black"/>
<path d="M23.309 19.0536H22.8987C22.673 19.0536 22.49 19.2366 22.49 19.4623C22.49 19.6879 22.673 19.8709 22.8987 19.8709H23.309C23.5347 19.8709 23.7177 19.6879 23.7177 19.4623C23.7177 19.2366 23.5347 19.0536 23.309 19.0536Z" fill="black"/>
<path d="M21.2568 19.0536H20.8464C20.6207 19.0536 20.4377 19.2366 20.4377 19.4623C20.4377 19.6879 20.6207 19.8709 20.8464 19.8709H21.2568C21.4824 19.8709 21.6654 19.6879 21.6654 19.4623C21.6654 19.2366 21.4824 19.0536 21.2568 19.0536Z" fill="black"/>
<path d="M15.1025 20.6942H14.6921C14.4664 20.6942 14.2834 20.8772 14.2834 21.1029C14.2834 21.3286 14.4664 21.5116 14.6921 21.5116H15.1025C15.3281 21.5116 15.5111 21.3286 15.5111 21.1029C15.5111 20.8772 15.3282 20.6942 15.1025 20.6942Z" fill="black"/>
<path d="M17.1528 20.6942H16.7424C16.5167 20.6942 16.3337 20.8772 16.3337 21.1029C16.3337 21.3286 16.5167 21.5116 16.7424 21.5116H17.1528C17.3784 21.5116 17.5614 21.3286 17.5614 21.1029C17.5614 20.8772 17.3785 20.6942 17.1528 20.6942Z" fill="black"/>
<path d="M19.2048 20.6942H18.7944C18.5687 20.6942 18.3857 20.8772 18.3857 21.1029C18.3857 21.3286 18.5687 21.5116 18.7944 21.5116H19.2048C19.4304 21.5116 19.6134 21.3286 19.6134 21.1029C19.6134 20.8772 19.4304 20.6942 19.2048 20.6942Z" fill="black"/>
<path d="M23.309 20.6942H22.8987C22.673 20.6942 22.49 20.8772 22.49 21.1029C22.49 21.3286 22.673 21.5116 22.8987 21.5116H23.309C23.5347 21.5116 23.7177 21.3286 23.7177 21.1029C23.7177 20.8772 23.5347 20.6942 23.309 20.6942Z" fill="black"/>
<path d="M21.2568 20.6942H20.8464C20.6207 20.6942 20.4377 20.8772 20.4377 21.1029C20.4377 21.3286 20.6207 21.5116 20.8464 21.5116H21.2568C21.4824 21.5116 21.6654 21.3286 21.6654 21.1029C21.6654 20.8772 21.4824 20.6942 21.2568 20.6942Z" fill="black"/>
<path d="M15.1025 22.3362H14.6921C14.4664 22.3362 14.2834 22.5192 14.2834 22.7449C14.2834 22.9705 14.4664 23.1535 14.6921 23.1535H15.1025C15.3281 23.1535 15.5111 22.9705 15.5111 22.7449C15.5111 22.5192 15.3282 22.3362 15.1025 22.3362Z" fill="black"/>
<path d="M17.1528 22.3362H16.7424C16.5167 22.3362 16.3337 22.5192 16.3337 22.7449C16.3337 22.9705 16.5167 23.1535 16.7424 23.1535H17.1528C17.3784 23.1535 17.5614 22.9705 17.5614 22.7449C17.5614 22.5192 17.3785 22.3362 17.1528 22.3362Z" fill="black"/>
<path d="M19.2048 22.3362H18.7944C18.5687 22.3362 18.3857 22.5192 18.3857 22.7449C18.3857 22.9705 18.5687 23.1535 18.7944 23.1535H19.2048C19.4304 23.1535 19.6134 22.9705 19.6134 22.7449C19.6134 22.5192 19.4304 22.3362 19.2048 22.3362Z" fill="black"/>
<path d="M23.309 22.3362H22.8987C22.673 22.3362 22.49 22.5192 22.49 22.7449C22.49 22.9705 22.673 23.1535 22.8987 23.1535H23.309C23.5347 23.1535 23.7177 22.9705 23.7177 22.7449C23.7177 22.5192 23.5347 22.3362 23.309 22.3362Z" fill="black"/>
<path d="M21.2568 22.3362H20.8464C20.6207 22.3362 20.4377 22.5192 20.4377 22.7449C20.4377 22.9705 20.6207 23.1535 20.8464 23.1535H21.2568C21.4824 23.1535 21.6654 22.9705 21.6654 22.7449C21.6654 22.5192 21.4824 22.3362 21.2568 22.3362Z" fill="black"/>
<path d="M15.1025 23.9777H14.6921C14.4664 23.9777 14.2834 24.1607 14.2834 24.3863C14.2834 24.612 14.4664 24.795 14.6921 24.795H15.1025C15.3281 24.795 15.5111 24.612 15.5111 24.3863C15.5111 24.1607 15.3282 23.9777 15.1025 23.9777Z" fill="black"/>
<path d="M17.1528 23.9777H16.7424C16.5167 23.9777 16.3337 24.1607 16.3337 24.3863C16.3337 24.612 16.5167 24.795 16.7424 24.795H17.1528C17.3784 24.795 17.5614 24.612 17.5614 24.3863C17.5614 24.1607 17.3785 23.9777 17.1528 23.9777Z" fill="black"/>
<path d="M19.2048 23.9777H18.7944C18.5687 23.9777 18.3857 24.1607 18.3857 24.3863C18.3857 24.612 18.5687 24.795 18.7944 24.795H19.2048C19.4304 24.795 19.6134 24.612 19.6134 24.3863C19.6134 24.1607 19.4304 23.9777 19.2048 23.9777Z" fill="black"/>
<path d="M23.309 23.9777H22.8987C22.673 23.9777 22.49 24.1607 22.49 24.3863C22.49 24.612 22.673 24.795 22.8987 24.795H23.309C23.5347 24.795 23.7177 24.612 23.7177 24.3863C23.7177 24.1607 23.5347 23.9777 23.309 23.9777Z" fill="black"/>
<path d="M21.2568 23.9777H20.8464C20.6207 23.9777 20.4377 24.1607 20.4377 24.3863C20.4377 24.612 20.6207 24.795 20.8464 24.795H21.2568C21.4824 24.795 21.6654 24.612 21.6654 24.3863C21.6654 24.1607 21.4824 23.9777 21.2568 23.9777Z" fill="black"/>
<path d="M15.1025 25.6187H14.6921C14.4664 25.6187 14.2834 25.8017 14.2834 26.0273C14.2834 26.253 14.4664 26.436 14.6921 26.436H15.1025C15.3281 26.436 15.5111 26.253 15.5111 26.0273C15.5111 25.8017 15.3282 25.6187 15.1025 25.6187Z" fill="black"/>
<path d="M17.1528 25.6187H16.7424C16.5167 25.6187 16.3337 25.8017 16.3337 26.0273C16.3337 26.253 16.5167 26.436 16.7424 26.436H17.1528C17.3784 26.436 17.5614 26.253 17.5614 26.0273C17.5614 25.8017 17.3785 25.6187 17.1528 25.6187Z" fill="black"/>
<path d="M19.2048 25.6187H18.7944C18.5687 25.6187 18.3857 25.8017 18.3857 26.0273C18.3857 26.253 18.5687 26.436 18.7944 26.436H19.2048C19.4304 26.436 19.6134 26.253 19.6134 26.0273C19.6134 25.8017 19.4304 25.6187 19.2048 25.6187Z" fill="black"/>
<path d="M23.309 25.6187H22.8987C22.673 25.6187 22.49 25.8017 22.49 26.0273C22.49 26.253 22.673 26.436 22.8987 26.436H23.309C23.5347 26.436 23.7177 26.253 23.7177 26.0273C23.7177 25.8017 23.5347 25.6187 23.309 25.6187Z" fill="black"/>
<path d="M21.2568 25.6187H20.8464C20.6207 25.6187 20.4377 25.8017 20.4377 26.0273C20.4377 26.253 20.6207 26.436 20.8464 26.436H21.2568C21.4824 26.436 21.6654 26.253 21.6654 26.0273C21.6654 25.8017 21.4824 25.6187 21.2568 25.6187Z" fill="black"/>
<path d="M19.0004 14.1294C18.3225 14.1294 17.771 14.6809 17.771 15.3588C17.771 16.0366 18.3225 16.5881 19.0004 16.5881C19.6782 16.5881 20.2297 16.0366 20.2297 15.3588C20.2297 14.6809 19.6782 14.1294 19.0004 14.1294ZM19.0004 15.7708C18.7731 15.7708 18.5883 15.586 18.5883 15.3588C18.5883 15.1315 18.7731 14.9467 19.0004 14.9467C19.2276 14.9467 19.4124 15.1315 19.4124 15.3588C19.4124 15.586 19.2276 15.7708 19.0004 15.7708Z" fill="black"/>
</svg>
