<svg width="38" height="38" viewBox="0 0 38 38" fill="none" xmlns="http://www.w3.org/2000/svg">
<path d="M25.5833 9H12.4167C11.6355 9 11 9.63553 11 10.4167V25.717C11 26.4982 11.6355 27.1337 12.4167 27.1337H25.5833C26.3645 27.1337 27 26.4982 27 25.717V10.4167C27 9.63553 26.3645 9 25.5833 9ZM12.4167 9.70835H25.5833C25.9739 9.70835 26.2917 10.0261 26.2917 10.4167V13.2674H11.7083V10.4167C11.7083 10.0261 12.0261 9.70835 12.4167 9.70835ZM25.5833 26.4254H12.4167C12.0261 26.4254 11.7083 26.1076 11.7083 25.717V13.9758H26.2917V25.717C26.2916 26.1076 25.9739 26.4254 25.5833 26.4254Z" fill="black"/>
<path d="M13.488 12.5535C14.0755 12.5535 14.5535 12.0755 14.5535 11.488C14.5535 10.9006 14.0755 10.4226 13.488 10.4226C12.9006 10.4226 12.4226 10.9006 12.4226 11.488C12.4226 12.0755 12.9006 12.5535 13.488 12.5535ZM13.488 11.131C13.6849 11.131 13.8451 11.2911 13.8451 11.488C13.8451 11.6849 13.6849 11.8451 13.488 11.8451C13.2911 11.8451 13.131 11.685 13.131 11.488C13.131 11.2911 13.2911 11.131 13.488 11.131Z" fill="black"/>
<path d="M24.5124 12.5535C25.0999 12.5535 25.5779 12.0755 25.5779 11.488C25.5779 10.9006 25.0999 10.4226 24.5124 10.4226C23.925 10.4226 23.447 10.9006 23.447 11.488C23.447 12.0755 23.9249 12.5535 24.5124 12.5535ZM24.5124 11.131C24.7093 11.131 24.8695 11.2911 24.8695 11.488C24.8695 11.6849 24.7094 11.8451 24.5124 11.8451C24.3156 11.8451 24.1554 11.685 24.1554 11.488C24.1554 11.2911 24.3156 11.131 24.5124 11.131Z" fill="black"/>
<path d="M19.1214 16.3667C16.8689 16.3667 15.0332 18.1997 15.0332 20.4549C15.0332 22.7091 16.8672 24.5431 19.1214 24.5431C21.4967 24.5431 23.3916 22.5107 23.1956 20.1181C23.0242 18.0269 21.2681 16.3667 19.1214 16.3667ZM19.1214 17.075C20.7719 17.075 22.1497 18.2644 22.4433 19.8311C22.1133 19.8975 21.8996 20.0397 21.7189 20.1603C21.5034 20.3043 21.3477 20.4082 20.9883 20.4082C20.6277 20.4082 20.4691 20.3037 20.2496 20.1591C20.0021 19.9961 19.6941 19.7932 19.1212 19.7932C18.5483 19.7932 18.2403 19.9961 17.9929 20.1591C17.7734 20.3037 17.6148 20.4082 17.2543 20.4082C16.895 20.4082 16.7393 20.3042 16.5238 20.1603C16.3431 20.0397 16.1294 19.8975 15.7995 19.8311C16.093 18.2644 17.4708 17.075 19.1214 17.075ZM19.1214 23.8347C17.288 23.8347 15.7909 22.3673 15.7428 20.5454C15.8895 20.5889 15.9989 20.6616 16.1304 20.7494C16.3753 20.913 16.6802 21.1165 17.2543 21.1165C17.8272 21.1165 18.1352 20.9136 18.3826 20.7506C18.6021 20.606 18.7606 20.5015 19.1212 20.5015C19.4818 20.5015 19.6404 20.606 19.8599 20.7506C20.1073 20.9136 20.4153 21.1165 20.9883 21.1165C21.5624 21.1165 21.8673 20.913 22.1122 20.7494C22.2437 20.6616 22.3531 20.5888 22.4999 20.5453C22.4518 22.3673 20.9548 23.8347 19.1214 23.8347Z" fill="black"/>
<path d="M15.6218 12.5535H22.3785C22.5741 12.5535 22.7327 12.3949 22.7327 12.1993V10.7768C22.7327 10.5812 22.5741 10.4226 22.3785 10.4226H15.6218C15.4261 10.4226 15.2676 10.5812 15.2676 10.7768V12.1993C15.2676 12.3949 15.4261 12.5535 15.6218 12.5535ZM15.9759 11.131H22.0243V11.8451H15.9759V11.131Z" fill="black"/>
</svg>
