<svg width="38" height="38" viewBox="0 0 38 38" fill="none" xmlns="http://www.w3.org/2000/svg">
<path d="M17.6554 19.3513C17.6554 19.899 18.101 20.3446 18.6487 20.3446H19.3514C19.8932 20.3446 20.335 19.9086 20.3445 19.369C20.3456 19.3511 20.3457 19.3326 20.346 19.3112C20.3539 18.4857 20.6641 17.6628 21.2193 16.994C21.6474 16.4784 21.8832 15.8248 21.8832 15.1537C21.8832 13.5091 20.5141 12.1968 18.8624 12.2737C17.3702 12.3433 16.1649 13.5681 16.1184 15.0619C16.0963 15.7704 16.3337 16.4592 16.7869 17.0014C17.347 17.6714 17.6554 18.5059 17.6554 19.3513ZM19.5785 19.3513C19.5785 19.4766 19.4767 19.5785 19.3514 19.5785H18.6487C18.5234 19.5785 18.4215 19.4766 18.4215 19.3512C18.4215 18.905 18.351 18.4618 18.2156 18.0369H19.7869C19.6551 18.4484 19.5839 18.8754 19.5798 19.3039C19.5796 19.3323 19.5785 19.3317 19.5785 19.3513ZM16.8841 15.0858C16.9182 13.9892 17.8029 13.0901 18.8981 13.039C20.1154 12.982 21.1171 13.9495 21.1171 15.1536C21.1171 15.6464 20.9441 16.1262 20.6299 16.5046C20.4307 16.7445 20.2583 17.0017 20.1134 17.2707H19.3854V16.1137H19.7716C19.9831 16.1137 20.1546 15.9421 20.1546 15.7306C20.1546 15.5191 19.9831 15.3475 19.7716 15.3475H18.2331C18.0215 15.3475 17.85 15.5191 17.85 15.7306C17.85 15.9421 18.0215 16.1137 18.2331 16.1137H18.6193V17.2707H17.8899C17.7455 17.0029 17.5734 16.7477 17.3747 16.5101C17.0421 16.1121 16.8679 15.6063 16.8841 15.0858Z" fill="black"/>
<path d="M27.2696 9.1936H10.7305C9.88308 9.1936 9.1936 9.88308 9.1936 10.7305V23.8079C9.1936 24.6554 9.88308 25.3449 10.7305 25.3449H16.8495L16.2014 28.0404H14.8043C14.5928 28.0404 14.4213 28.2119 14.4213 28.4234C14.4213 28.635 14.5928 28.8065 14.8043 28.8065H23.1958C23.4073 28.8065 23.5789 28.635 23.5789 28.4234C23.5789 28.2119 23.4073 28.0404 23.1958 28.0404H21.7987L21.1507 25.3449H27.2696C28.1171 25.3449 28.8065 24.6554 28.8065 23.8079V10.7305C28.8065 9.88308 28.117 9.1936 27.2696 9.1936V9.1936ZM10.7305 9.95973H27.2696C27.6946 9.95973 28.0404 10.3055 28.0404 10.7305V22.6556H9.95973V10.7305C9.95973 10.3055 10.3055 9.95973 10.7305 9.95973ZM21.0108 28.0404H16.9893L17.6374 25.3449H20.3627L21.0108 28.0404ZM27.2696 24.5787H10.7305C10.3055 24.5787 9.95973 24.2329 9.95973 23.8079V23.4217H28.0404V23.8079C28.0404 24.2329 27.6946 24.5787 27.2696 24.5787Z" fill="black"/>
</svg>
