<svg width="38" height="38" viewBox="0 0 38 38" fill="none" xmlns="http://www.w3.org/2000/svg">
<path d="M27.0404 17.3964H26.0721L26.2292 15.04H26.2559C26.9039 15.04 27.431 14.5128 27.431 13.8649C27.431 13.217 26.9039 12.6898 26.2559 12.6898H11.7439C11.096 12.6898 10.5689 13.217 10.5689 13.8649C10.5689 14.5128 11.096 15.04 11.7439 15.04H11.7707L11.9278 17.3964H10.9595C9.87703 17.3964 9 18.2732 9 19.3559C9 20.4364 9.87902 21.3154 10.9595 21.3154H12.1892L12.5308 26.4418C12.5445 26.647 12.7149 26.8065 12.9206 26.8065H13.3144V26.8128C13.3144 27.6744 14.0153 28.3753 14.8769 28.3753H23.123C23.9846 28.3753 24.6855 27.6744 24.6855 26.8128V26.8065H25.0794C25.2851 26.8065 25.4555 26.647 25.4692 26.4418L25.8109 21.3154H27.0405C28.1229 21.3154 29 20.4387 29 19.3559C28.9999 18.2755 28.1209 17.3964 27.0404 17.3964ZM11.3501 13.8649C11.3501 13.6477 11.5268 13.4711 11.7439 13.4711H26.2559C26.4731 13.4711 26.6498 13.6477 26.6498 13.8649C26.6498 14.0821 26.4731 14.2587 26.2559 14.2587C24.0647 14.2587 13.9285 14.2587 11.7439 14.2587C11.5268 14.2587 11.3501 14.082 11.3501 13.8649ZM10.9595 20.5342C10.3098 20.5342 9.78125 20.0056 9.78125 19.3559C9.78125 18.7052 10.3086 18.1777 10.9595 18.1777H11.9798L12.1371 20.5342H10.9595ZM23.9043 26.8128C23.9043 27.2436 23.5538 27.5941 23.123 27.5941H14.8769C14.4461 27.5941 14.0956 27.2436 14.0956 26.8128V26.8065H23.9043V26.8128ZM13.286 26.0252C13.2597 25.6302 12.5964 15.6806 12.5537 15.0399H25.4463C25.444 15.0747 24.7144 26.0184 24.7139 26.0252C24.1178 26.0252 13.8185 26.0252 13.286 26.0252ZM27.0404 20.5342H25.8629C25.8668 20.4765 25.8359 20.9396 26.0201 18.1777H27.0404C27.6901 18.1777 28.2186 18.7062 28.2186 19.3559C28.2187 20.0064 27.6914 20.5342 27.0404 20.5342Z" fill="black"/>
<path d="M21.9414 16.2196H16.0581C15.8424 16.2196 15.6675 16.3945 15.6675 16.6102C15.6675 16.826 15.8424 17.0009 16.0581 17.0009H21.9414C22.1571 17.0009 22.332 16.826 22.332 16.6102C22.332 16.3945 22.1571 16.2196 21.9414 16.2196Z" fill="black"/>
<path d="M14.8813 11.5C15.0971 11.5 15.272 11.3251 15.272 11.1094V10.5625C15.272 10.1317 15.6224 9.78125 16.0532 9.78125H21.946C22.3768 9.78125 22.7273 10.1317 22.7273 10.5625V11.1094C22.7273 11.3251 22.9022 11.5 23.1179 11.5C23.3337 11.5 23.5085 11.3251 23.5085 11.1094V10.5625C23.5085 9.70093 22.8076 9 21.946 9H16.0532C15.1917 9 14.4907 9.70093 14.4907 10.5625L14.4907 11.1094C14.4907 11.3251 14.6656 11.5 14.8813 11.5Z" fill="black"/>
<path d="M15.6234 26.4944V22.726C15.6234 20.8615 17.1349 19.35 18.9995 19.35C20.8641 19.35 22.3756 20.8615 22.3756 22.726V26.4944H15.6234Z" stroke="black" stroke-width="0.7"/>
<path d="M18.999 20.1414C17.9186 20.1414 17.0396 21.0204 17.0396 22.1009C17.0396 23.1813 17.9186 24.0603 18.999 24.0603C20.0795 24.0603 20.9585 23.1813 20.9585 22.1009C20.9585 21.0204 20.0795 20.1414 18.999 20.1414ZM18.999 23.2791C18.3493 23.2791 17.8208 22.7506 17.8208 22.1009C17.8208 21.4512 18.3493 20.9226 18.999 20.9226C19.6487 20.9226 20.1773 21.4512 20.1773 22.1009C20.1773 22.7506 19.6487 23.2791 18.999 23.2791Z" fill="black"/>
<path d="M25.4749 12.975H12.525V12.1199C12.525 11.6308 12.8933 11.275 13.2988 11.275H24.7012C25.1066 11.275 25.4749 11.6308 25.4749 12.1199L25.4749 12.975Z" stroke="black" stroke-width="0.8"/>
</svg>
