<svg width="38" height="38" viewBox="0 0 38 38" fill="none" xmlns="http://www.w3.org/2000/svg">
<g clip-path="url(#clip0_102_594)">
<path d="M27.2694 9.1936C26.6152 9.1936 11.3846 9.1936 10.7305 9.1936C10.5189 9.1936 10.3474 9.3651 10.3474 9.57667V26.8849C10.3474 27.0965 10.5189 27.268 10.7305 27.268H11.1167V28.4234C11.1167 28.635 11.2882 28.8065 11.4997 28.8065H26.5002C26.7118 28.8065 26.8833 28.635 26.8833 28.4234V27.268H27.2695C27.481 27.268 27.6525 27.0965 27.6525 26.8849V9.57667C27.6525 9.3651 27.481 9.1936 27.2694 9.1936ZM17.6522 9.95973H18.4246V26.5019H17.6522V9.95973ZM11.1135 26.5019V9.95973H16.8861V26.5019C16.2505 26.5019 11.7587 26.5019 11.1135 26.5019ZM26.1171 28.0404H11.8828V27.268H26.1171V28.0404ZM26.8864 26.5019C26.4308 26.5019 19.4593 26.5019 19.1907 26.5019V9.95973H26.8864V26.5019Z" fill="black"/>
<path d="M20.3462 21.8832H25.731C25.9425 21.8832 26.114 21.7117 26.114 21.5001V18.0385C26.114 17.8269 25.9425 17.6554 25.731 17.6554H20.3462C20.1346 17.6554 19.9631 17.8269 19.9631 18.0385V21.5001C19.9631 21.7117 20.1346 21.8832 20.3462 21.8832ZM20.7293 18.4215H25.3479V21.117H20.7293V18.4215Z" fill="black"/>
</g>
<defs>
<clipPath id="clip0_102_594">
<rect width="19.6129" height="19.6129" fill="white" transform="translate(9.1936 9.1936)"/>
</clipPath>
</defs>
</svg>
