<svg width="38" height="38" viewBox="0 0 38 38" fill="none" xmlns="http://www.w3.org/2000/svg">
<path d="M27.4375 12.2969H19.0892L23.37 8.68931C23.535 8.55029 23.5561 8.30384 23.417 8.13888C23.278 7.97392 23.0316 7.95295 22.8666 8.09189L18.058 12.1441L15.1731 8.91173C15.0295 8.7508 14.7826 8.73677 14.6216 8.88041C14.4606 9.02404 14.4466 9.27099 14.5903 9.43193L17.1472 12.2969H10.5625C9.70094 12.2969 9 12.9978 9 13.8594V24.0156C9 24.8772 9.70094 25.5781 10.5625 25.5781H10.7185L11.3948 26.9252C11.4611 27.0573 11.5962 27.1406 11.7439 27.1406H26.2561C26.4038 27.1406 26.5389 27.0573 26.6051 26.9252L27.2815 25.5781H27.4375C28.2991 25.5781 29 24.8772 29 24.0156V13.8594C29 12.9978 28.2991 12.2969 27.4375 12.2969ZM26.0151 26.3594H11.9849L11.5927 25.5781H26.4073L26.0151 26.3594ZM28.2188 24.0156C28.2188 24.4464 27.8683 24.7969 27.4375 24.7969C26.7907 24.7969 11.5377 24.7969 10.5625 24.7969C10.1317 24.7969 9.78125 24.4464 9.78125 24.0156V13.8594C9.78125 13.4286 10.1317 13.0781 10.5625 13.0781H27.4375C27.8683 13.0781 28.2188 13.4286 28.2188 13.8594V24.0156Z" fill="black"/>
<path d="M26.2558 16.9844C25.6079 16.9844 25.0808 17.5101 25.0808 18.1562C25.0808 18.8024 25.6079 19.3281 26.2558 19.3281C26.9038 19.3281 27.4309 18.8024 27.4309 18.1562C27.4309 17.5101 26.9038 16.9844 26.2558 16.9844ZM26.2558 18.5469C26.0387 18.5469 25.8621 18.3716 25.8621 18.1562C25.8621 17.9409 26.0387 17.7656 26.2558 17.7656C26.473 17.7656 26.6497 17.9409 26.6497 18.1562C26.6497 18.3716 26.473 18.5469 26.2558 18.5469Z" fill="black"/>
<path d="M26.2558 13.8594C25.6079 13.8594 25.0808 14.3851 25.0808 15.0312C25.0808 15.6774 25.6079 16.2031 26.2558 16.2031C26.9038 16.2031 27.4309 15.6774 27.4309 15.0312C27.4309 14.3851 26.9038 13.8594 26.2558 13.8594ZM26.2558 15.4219C26.0387 15.4219 25.8621 15.2466 25.8621 15.0312C25.8621 14.8159 26.0387 14.6406 26.2558 14.6406C26.473 14.6406 26.6497 14.8159 26.6497 15.0312C26.6497 15.2466 26.473 15.4219 26.2558 15.4219Z" fill="black"/>
<path d="M11.5938 15.25C11.5938 14.9186 11.8625 14.65 12.1938 14.65H22.6938C23.0252 14.65 23.2938 14.9186 23.2938 15.25V22.625C23.2938 22.9564 23.0252 23.225 22.6938 23.225H12.1938C11.8625 23.225 11.5938 22.9564 11.5938 22.625V15.25Z" stroke="black" stroke-width="0.8"/>
</svg>
