<svg width="38" height="38" viewBox="0 0 38 38" fill="none" xmlns="http://www.w3.org/2000/svg">
<path d="M27 16.5166C27 12.3719 23.6281 9 19.4834 9C11.1121 9.1491 9.12752 20.4941 16.8044 23.5398L16.015 26.4859H15.5274C14.8729 26.4859 14.3405 27.0183 14.3405 27.6728V28.8596C14.3405 29.0781 14.5176 29.2552 14.7361 29.2552H24.2307C24.4492 29.2552 24.6264 29.0781 24.6264 28.8596V27.6728C24.6264 27.0183 24.0939 26.4859 23.4395 26.4859H22.9519L22.1624 23.5398C24.9882 22.4583 27 19.718 27 16.5166ZM12.7581 16.5166C12.7581 12.8082 15.7751 9.79122 19.4834 9.79122C28.3933 10.1293 28.3908 22.9052 19.4834 23.2419C15.7751 23.2419 12.7581 20.2249 12.7581 16.5166ZM23.8351 27.6728V28.464H15.1317V27.6728C15.1317 27.4546 15.3092 27.2771 15.5274 27.2771H23.4395C23.6577 27.2771 23.8351 27.4546 23.8351 27.6728ZM22.1328 26.4859H19.879V25.328C19.879 25.1095 19.7019 24.9324 19.4834 24.9324C19.2649 24.9324 19.0878 25.1095 19.0878 25.328V26.4859H16.8341L17.5583 23.7833C18.778 24.1147 20.1888 24.1147 21.4086 23.7833L22.1328 26.4859Z" fill="black"/>
<path fill-rule="evenodd" clip-rule="evenodd" d="M19.4836 14.5476V14.8281C20.6396 14.8281 21.5766 15.7652 21.5766 16.9212C23.7417 18.812 22.3964 22.4635 19.4836 22.4597C19.4836 22.3882 19.4836 18.9615 19.4836 19.0143C18.3275 19.0143 17.3905 18.0772 17.3905 16.9212C15.2255 15.0304 16.5707 11.3789 19.4836 11.3827V14.5476ZM19.4836 14.8281C18.3275 14.8281 17.3905 15.7653 17.3905 16.9212C17.4337 16.9212 14.0196 16.9212 13.9451 16.9212C13.9418 19.8356 17.5938 21.1784 19.4836 19.0143C20.6396 19.0143 21.5766 18.0772 21.5766 16.9212H25.0221C25.0254 14.0068 21.3733 12.6641 19.4836 14.8281Z" fill="black" fill-opacity="0.2"/>
<path d="M22.4784 16.745C22.4784 15.1025 21.1378 13.7662 19.4899 13.7662C15.5308 13.916 15.5319 19.5745 19.49 19.7236C21.1378 19.7236 22.4784 18.3874 22.4784 16.745ZM17.4516 16.745C17.4516 15.6247 18.366 14.7132 19.4899 14.7132C22.1904 14.8154 22.1897 18.6749 19.4899 18.7766C18.366 18.7766 17.4516 17.8653 17.4516 16.745Z" fill="black"/>
<path d="M19.8794 16.5166C19.8794 16.298 19.7021 16.1208 19.4835 16.121C18.9593 16.1404 18.9598 16.893 19.4838 16.9122C19.7023 16.9122 19.8794 16.7351 19.8794 16.5166Z" fill="black"/>
</svg>
