<svg width="42" height="42" viewBox="0 0 42 42" fill="none" xmlns="http://www.w3.org/2000/svg">
<path d="M10.0312 31.9471L10.0312 31.9471C9.78777 30.6923 9.58277 29.4111 9.42183 28.1391C8.51227 20.9508 8.91906 13.5992 10.6308 6.2889C10.7192 5.90709 10.9348 5.56665 11.242 5.32339C11.5493 5.08012 11.9302 4.94847 12.3221 4.95001M10.0312 31.9471L12.322 5.00001M10.0312 31.9471C10.2423 33.0326 10.8078 34.0173 11.639 34.7468C12.4584 35.4659 13.4902 35.8968 14.5767 35.9744V37.0625C14.5767 37.225 14.6413 37.3807 14.7561 37.4956C14.871 37.6105 15.0268 37.675 15.1892 37.675H17.4392C17.6017 37.675 17.7575 37.6105 17.8724 37.4956C17.9872 37.3807 18.0517 37.225 18.0517 37.0625V35.9875H23.5767V37.0625C23.5767 37.225 23.6413 37.3807 23.7561 37.4956C23.871 37.6105 24.0268 37.675 24.1892 37.675H26.4392C26.6017 37.675 26.7575 37.6105 26.8724 37.4956C26.9872 37.3807 27.0517 37.225 27.0517 37.0625V35.9744C28.1382 35.8968 29.17 35.4659 29.9894 34.7469C30.8206 34.0175 31.3861 33.0329 31.5973 31.9475L31.5973 31.9474C31.8407 30.6926 32.0457 29.4114 32.2067 28.1394C33.1162 20.9509 32.7094 13.5993 30.9978 6.28902C30.9094 5.90715 30.6938 5.56666 30.3865 5.32337C30.0792 5.0801 29.6984 4.94845 29.3064 4.95001M10.0312 31.9471L29.3065 5.00001M12.3221 4.95001C12.3221 4.95001 12.3221 4.95001 12.3222 4.95001L12.322 5.00001M12.3221 4.95001H12.322V5.00001M12.3221 4.95001H29.3064M12.322 5.00001H29.3065M29.3064 4.95001C29.3064 4.95001 29.3064 4.95001 29.3063 4.95001L29.3065 5.00001M29.3064 4.95001H29.3065V5.00001M30.9915 27.9859C31.2455 25.9747 31.3948 23.9517 31.4387 21.925H23.1142V30.3679V30.368C23.1137 30.8139 22.9364 31.2415 22.621 31.5568C22.3057 31.8721 21.8782 32.0495 21.4322 32.05H21.4322H20.1963H20.1963C19.7503 32.0495 19.3228 31.8721 19.0075 31.5568C18.6921 31.2415 18.5148 30.8139 18.5142 30.368V30.3679V21.9247H10.1898C10.2338 23.9514 10.3831 25.9745 10.6371 27.9856C10.7948 29.2311 10.9955 30.4856 11.2338 31.7142C11.3999 32.5707 11.8585 33.343 12.5309 33.899C13.2034 34.455 14.0481 34.7603 14.9206 34.7625H26.7079C27.5804 34.7603 28.4251 34.455 29.0976 33.899C29.77 33.343 30.2285 32.5707 30.3947 31.7142C30.633 30.4856 30.8335 29.2312 30.9915 27.9859ZM30.9915 27.9859C30.9915 27.9859 30.9915 27.9859 30.9915 27.9859L31.0411 27.9922L30.9915 27.9859ZM11.8234 6.56836L11.8234 6.56822C11.8496 6.45591 11.9132 6.35582 12.0037 6.28437C12.0942 6.21293 12.2064 6.17437 12.3217 6.17501H12.322H12.5326L16.8748 16.4874C16.8748 16.4874 16.8748 16.4874 16.8748 16.4874C16.9215 16.5985 17 16.6934 17.1004 16.7601C17.2008 16.8268 17.3187 16.8625 17.4392 16.8625H17.4392H24.1892C24.3098 16.8625 24.4277 16.8269 24.5281 16.7601C24.6285 16.6934 24.707 16.5985 24.7538 16.4874L29.0959 6.17501L29.3066 6.17501L29.3069 6.17501C29.4222 6.17438 29.5343 6.21295 29.6248 6.28439C29.7153 6.35584 29.7789 6.45592 29.8051 6.56822L29.8051 6.56836C30.8985 11.1995 31.4515 15.9417 31.453 20.7H10.1755C10.177 15.9417 10.73 11.1995 11.8234 6.56836ZM17.8459 15.6375L13.8617 6.17501H27.7667L23.7825 15.6375H17.8459ZM19.7392 21.925H21.8892V30.3679C21.8891 30.4891 21.8409 30.6053 21.7552 30.691C21.6695 30.7767 21.5533 30.8249 21.4321 30.825H20.1964C20.0752 30.8249 19.959 30.7767 19.8733 30.691C19.7876 30.6053 19.7394 30.4891 19.7392 30.3679V21.925ZM16.8267 36.45H15.8017V35.9875H16.8267V36.45ZM25.8267 36.45H24.8017V35.9875H25.8267V36.45Z" fill="#2D2D2D" stroke="#2D2D2D" stroke-width="0.1"/>
<path d="M20.8142 14.05H20.8142C21.2691 14.05 21.7138 13.9151 22.092 13.6624C22.4703 13.4097 22.7651 13.0504 22.9391 12.6302C23.1132 12.2099 23.1588 11.7474 23.07 11.3013C22.9813 10.8551 22.7622 10.4453 22.4406 10.1237C22.1189 9.80199 21.7091 9.58294 21.2629 9.49419C20.8168 9.40545 20.3543 9.451 19.934 9.62508C19.5138 9.79916 19.1546 10.094 18.9018 10.4722C18.6491 10.8504 18.5142 11.2951 18.5142 11.75L18.5142 11.7501C18.5149 12.3598 18.7575 12.9444 19.1886 13.3756C19.6198 13.8068 20.2044 14.0493 20.8142 14.05ZM20.8143 10.675C21.0269 10.675 21.2347 10.7381 21.4114 10.8562C21.5882 10.9743 21.726 11.1422 21.8074 11.3386C21.8887 11.535 21.91 11.7512 21.8686 11.9597C21.8271 12.1683 21.7247 12.3598 21.5743 12.5101C21.424 12.6605 21.2325 12.7629 21.0239 12.8043C20.8154 12.8458 20.5993 12.8245 20.4028 12.7432C20.2064 12.6618 20.0385 12.524 19.9204 12.3472C19.8023 12.1705 19.7392 11.9627 19.7392 11.7501C19.7395 11.465 19.8529 11.1918 20.0544 10.9902C20.256 10.7887 20.5292 10.6753 20.8143 10.675Z" fill="#2D2D2D" stroke="#2D2D2D" stroke-width="0.1"/>
<path d="M19.1267 8.425H19.6892C19.8517 8.425 20.0074 8.36047 20.1223 8.2456C20.2372 8.13074 20.3017 7.97495 20.3017 7.8125C20.3017 7.65005 20.2372 7.49426 20.1223 7.3794C20.0074 7.26453 19.8517 7.2 19.6892 7.2H19.1267C18.9643 7.2 18.8085 7.26453 18.6936 7.3794C18.5787 7.49426 18.5142 7.65005 18.5142 7.8125C18.5142 7.97495 18.5787 8.13074 18.6936 8.2456C18.8085 8.36047 18.9643 8.425 19.1267 8.425Z" fill="#2D2D2D" stroke="#2D2D2D" stroke-width="0.1"/>
<path d="M21.9392 8.425H22.5017C22.6642 8.425 22.8199 8.36047 22.9348 8.2456C23.0497 8.13074 23.1142 7.97495 23.1142 7.8125C23.1142 7.65005 23.0497 7.49426 22.9348 7.3794C22.8199 7.26453 22.6642 7.2 22.5017 7.2H21.9392C21.7768 7.2 21.621 7.26453 21.5061 7.3794C21.3912 7.49426 21.3267 7.65005 21.3267 7.8125C21.3267 7.97495 21.3912 8.13074 21.5061 8.2456C21.621 8.36047 21.7768 8.425 21.9392 8.425Z" fill="#2D2D2D" stroke="#2D2D2D" stroke-width="0.1"/>
</svg>
