<svg width="38" height="38" viewBox="0 0 38 38" fill="none" xmlns="http://www.w3.org/2000/svg">
<path d="M19.4329 15.9354C20.2679 15.9354 20.9472 15.2562 20.9472 14.4212C20.9472 13.5863 20.2679 12.907 19.4329 12.907C18.598 12.907 17.9187 13.5863 17.9187 14.4212C17.9187 15.2562 18.598 15.9354 19.4329 15.9354ZM19.4329 13.7723C19.7908 13.7723 20.0819 14.0634 20.0819 14.4212C20.0819 14.779 19.7908 15.0702 19.4329 15.0702C19.0751 15.0702 18.784 14.779 18.784 14.4212C18.784 14.0634 19.0751 13.7723 19.4329 13.7723Z" fill="black"/>
<path d="M25.4897 8.58069H13.3758C12.4216 8.58069 11.6453 9.35701 11.6453 10.3112V25.8862C11.6453 26.8404 12.4216 27.6167 13.3758 27.6167H13.8085V28.2224C13.8085 28.8427 14.313 29.3473 14.9333 29.3473H15.1064V30.2126C15.1064 30.4515 15.3001 30.6452 15.539 30.6452C15.7779 30.6452 15.9716 30.4515 15.9716 30.2126V29.3473H16.1447C16.765 29.3473 17.2696 28.8427 17.2696 28.2224V27.6167H21.5959V28.2224C21.5959 28.8427 22.1005 29.3473 22.7208 29.3473H22.8938V30.2126C22.8938 30.4515 23.0876 30.6452 23.3265 30.6452C23.5654 30.6452 23.7591 30.4515 23.7591 30.2126V29.3473H23.9322C24.5524 29.3473 25.057 28.8427 25.057 28.2224V27.6167H25.4897C26.4439 27.6167 27.2202 26.8404 27.2202 25.8862V10.3112C27.2202 9.35701 26.4439 8.58069 25.4897 8.58069ZM13.3758 9.44596H25.4897C25.9668 9.44596 26.3549 9.83413 26.3549 10.3112V11.1765H12.5105V10.3112C12.5105 9.83413 12.8987 9.44596 13.3758 9.44596ZM16.4043 28.2224C16.4043 28.3656 16.2879 28.482 16.1447 28.482H14.9333C14.7901 28.482 14.6737 28.3656 14.6737 28.2224V27.6167H16.4043V28.2224ZM24.1918 28.2224C24.1918 28.3656 24.0753 28.482 23.9322 28.482H22.7208C22.5776 28.482 22.4612 28.3656 22.4612 28.2224V27.6167H24.1918V28.2224ZM25.4897 26.7515C21.963 26.7515 16.9053 26.7515 13.3758 26.7515C12.8987 26.7515 12.5105 26.3633 12.5105 25.8862V12.0418H26.3549V25.8862C26.3549 26.3633 25.9668 26.7515 25.4897 26.7515Z" fill="black"/>
<path d="M19.4323 16.8008C17.7624 16.8008 16.4038 18.1593 16.4038 19.8292C16.4038 21.4991 17.7624 22.8577 19.4323 22.8577C21.1022 22.8577 22.4607 21.4991 22.4607 19.8292C22.4607 18.1593 21.1022 16.8008 19.4323 16.8008ZM19.4323 21.9924C18.2395 21.9924 17.2691 21.022 17.2691 19.8292C17.2691 18.7846 18.0134 17.9106 18.9996 17.7096V18.964C18.9996 19.2029 19.1933 19.3966 19.4323 19.3966C19.6712 19.3966 19.8649 19.2029 19.8649 18.964V17.7096C20.8511 17.9106 21.5955 18.7846 21.5955 19.8292C21.5955 21.022 20.6251 21.9924 19.4323 21.9924Z" fill="black"/>
</svg>
