<svg width="38" height="38" viewBox="0 0 38 38" fill="none" xmlns="http://www.w3.org/2000/svg">
<path d="M12.461 21.2876L12.869 24.5505C13.3518 24.4977 13.7144 24.0625 13.6649 23.5668L12.461 21.2876ZM12.461 21.2876H12.6233C13.0883 21.2876 13.4717 21.6344 13.5181 22.0975C13.5181 22.0975 13.5182 22.0976 13.5182 22.0976L13.6649 23.5668L12.461 21.2876Z" fill="white" stroke="black" stroke-width="1.2"/>
<path d="M15.5876 18.74C13.7548 18.74 12.263 17.2483 12.263 15.4155C12.263 13.5826 13.7548 12.0909 15.5876 12.0909C17.4204 12.0909 18.9121 13.5826 18.9121 15.4155C18.9121 17.2483 17.4204 18.74 15.5876 18.74Z" stroke="black" stroke-width="0.8"/>
<path d="M28.4782 10.605L25.2365 12.0458L16.6176 10.1317C13.2179 9.37653 10 11.9655 10 15.4409C10 16.8918 10.5674 18.2556 11.5749 19.269L12.4699 26.4263C12.5733 27.2564 13.2824 27.8824 14.1192 27.8824H14.5181C14.6835 28.5244 15.2673 29.0002 15.9602 29.0002H21.1767C22.2032 29.0002 23.0382 28.1652 23.0382 27.1387C23.0382 26.1123 22.2032 25.2772 21.1767 25.2772H19.6863C19.4813 25.2772 19.3152 25.4434 19.3152 25.6483C19.3152 25.8532 19.4813 26.0194 19.6863 26.0194H21.1767C21.7939 26.0194 22.296 26.5215 22.296 27.1387C22.296 27.7559 21.7939 28.258 21.1767 28.258H15.9602C15.6836 28.258 15.4422 28.1065 15.3131 27.8824H15.4143C16.3309 27.8824 17.0765 27.1367 17.0765 26.2202V25.2741H17.4784C18.0786 25.2741 18.567 24.7858 18.567 24.1856V23.3849C18.567 22.7846 18.0786 22.2963 17.4784 22.2963H17.0765V20.6456L25.2376 18.7855L28.4782 20.2258C28.7223 20.3343 29 20.1561 29 19.8867V10.9441C29 10.676 28.7235 10.496 28.4782 10.605ZM16.4567 10.8562L24.9043 12.7323V18.1002C16.2462 20.045 16.3735 20.1096 15.5876 20.1361C12.981 20.2238 10.7422 18.132 10.7422 15.4409C10.7422 12.4428 13.5182 10.2038 16.4567 10.8562ZM16.3343 26.2202C16.3343 26.7275 15.9216 27.1402 15.4143 27.1402H14.1192C13.6561 27.1402 13.2636 26.7938 13.2064 26.3344L12.409 19.9577C13.5354 20.7154 14.9248 21.0422 16.3343 20.8052V26.2202ZM17.4784 23.0385C17.6694 23.0385 17.8248 23.1939 17.8248 23.3849V24.1856C17.8248 24.3766 17.6694 24.532 17.4784 24.532H17.0765V23.0385H17.4784ZM28.2578 19.3157L25.6465 18.1551V12.6757L28.2578 11.5151V19.3157Z" fill="black"/>
<path d="M13.7246 15.7865H17.4507C17.6556 15.7865 17.8218 15.6203 17.8218 15.4154C17.8218 15.2105 17.6556 15.0443 17.4507 15.0443H13.7246C13.5197 15.0443 13.3535 15.2105 13.3535 15.4154C13.3535 15.6203 13.5197 15.7865 13.7246 15.7865Z" fill="black"/>
<path d="M14.8425 14.3395H16.333C16.5379 14.3395 16.7041 14.1733 16.7041 13.9684C16.7041 13.7635 16.5379 13.5973 16.333 13.5973H14.8425C14.6376 13.5973 14.4714 13.7635 14.4714 13.9684C14.4714 14.1733 14.6376 14.3395 14.8425 14.3395Z" fill="black"/>
<path d="M16.333 16.5782H14.8425C14.6376 16.5782 14.4714 16.7444 14.4714 16.9493C14.4714 17.1543 14.6376 17.3204 14.8425 17.3204H16.333C16.5379 17.3204 16.7041 17.1543 16.7041 16.9493C16.7041 16.7444 16.5379 16.5782 16.333 16.5782Z" fill="black"/>
</svg>
