<svg width="38" height="38" viewBox="0 0 38 38" fill="none" xmlns="http://www.w3.org/2000/svg">
<path d="M15.2409 13.4574C15.9107 13.4574 16.4557 12.9125 16.4557 12.2427C16.4557 11.5726 15.9107 11.0275 15.2409 11.0275C14.5711 11.0275 14.0261 11.5726 14.0261 12.2427C14.0261 12.9125 14.5711 13.4574 15.2409 13.4574ZM15.2409 11.8352C15.4654 11.8352 15.648 12.018 15.648 12.2427C15.648 12.4672 15.4654 12.6497 15.2409 12.6497C15.0164 12.6497 14.8338 12.4672 14.8338 12.2427C14.8338 12.018 15.0165 11.8352 15.2409 11.8352Z" fill="black"/>
<path d="M18.4848 13.4574C19.1546 13.4574 19.6996 12.9125 19.6996 12.2427C19.6996 11.5726 19.1546 11.0275 18.4848 11.0275C17.815 11.0275 17.27 11.5726 17.27 12.2427C17.27 12.9125 17.815 13.4574 18.4848 13.4574ZM18.4848 11.8352C18.7093 11.8352 18.8919 12.018 18.8919 12.2427C18.8919 12.4672 18.7093 12.6497 18.4848 12.6497C18.2603 12.6497 18.0777 12.4672 18.0777 12.2427C18.0777 12.018 18.2603 11.8352 18.4848 11.8352Z" fill="black"/>
<path d="M22.9468 11.8352H24.5687C24.7917 11.8352 24.9725 11.6543 24.9725 11.4313C24.9725 11.2083 24.7917 11.0275 24.5687 11.0275H22.9468C22.7238 11.0275 22.543 11.2083 22.543 11.4313C22.543 11.6543 22.7238 11.8352 22.9468 11.8352Z" fill="black"/>
<path d="M22.9468 13.4574C23.1674 13.4574 23.3506 13.2739 23.3507 13.0536C23.3507 12.8356 23.1641 12.6497 22.9469 12.6497C22.7277 12.6496 22.543 12.8351 22.543 13.0534C22.5429 13.264 22.7247 13.4573 22.9468 13.4574Z" fill="black"/>
<path d="M24.5686 12.6497C24.3572 12.6497 24.1648 12.8291 24.1648 13.0535C24.1648 13.274 24.3479 13.4573 24.5686 13.4574C24.7892 13.4574 24.9724 13.2744 24.9725 13.0537C24.9726 12.8368 24.7841 12.6497 24.5686 12.6497Z" fill="black"/>
<path d="M27 10.661C27 9.74515 26.2551 9 25.3394 9H13.6204C12.727 9 12.0001 9.72685 12.0001 10.6203C12.0001 12.0649 11.9999 27.1845 12.0001 28.057C12.0001 28.9504 12.727 29.6773 13.6204 29.6773H25.3797C26.2731 29.6773 27 28.9504 27 28.057C27 27.6193 27 11.9077 27 10.661ZM17.0654 22.3799C17.0654 21.3773 17.6944 20.4631 18.6307 20.1051C18.8727 20.0124 19.1265 19.9597 19.3867 19.9478C17.9164 21.2437 17.9197 23.5191 19.3867 24.8119C18.0764 24.7522 17.0654 23.6598 17.0654 22.3799ZM16.2577 22.3799C16.2577 23.3224 16.6755 24.2057 17.3594 24.8117C16.0693 24.7524 15.0379 23.6844 15.0379 22.3799C15.0379 21.0754 16.0693 20.0075 17.3594 19.9481C16.6755 20.5541 16.2577 21.4375 16.2577 22.3799ZM19.0929 22.3799C19.0929 21.0374 20.1851 19.9453 21.5276 19.9453C22.87 19.9453 23.9622 21.0374 23.9622 22.3799C23.9622 23.7224 22.87 24.8146 21.5276 24.8146C20.1851 24.8146 19.0929 23.7224 19.0929 22.3799ZM24.7699 22.3799C24.7699 20.5921 23.3154 19.1376 21.5276 19.1376C21.1743 19.1376 20.8343 19.1951 20.5157 19.3001C20.189 19.1922 19.848 19.1376 19.5 19.1376C19.1526 19.1376 18.8122 19.1921 18.4861 19.2995C18.1599 19.1921 17.8197 19.1376 17.4725 19.1376C15.6847 19.1376 14.2302 20.5921 14.2302 22.3799C14.2302 23.3492 14.6583 24.2199 15.3347 24.8146H12.8078V17.5122H26.1923V24.8145H23.6654C24.3418 24.2199 24.7699 23.3492 24.7699 22.3799ZM12.8078 25.6223H26.1923V26.8421H12.8078V25.6223ZM13.6204 9.80771H25.3394C25.8097 9.80771 26.1923 10.1905 26.1923 10.661V16.7045H12.8078V10.6203C12.8078 10.1722 13.1723 9.80771 13.6204 9.80771ZM25.3797 28.8696H13.6204C13.1723 28.8696 12.8078 28.5051 12.8078 28.057V27.6498H26.1923V28.057C26.1923 28.5051 25.8278 28.8696 25.3797 28.8696Z" fill="black"/>
<path d="M21.5278 20.7598C20.6344 20.7598 19.9075 21.4867 19.9075 22.3801C19.9075 23.2736 20.6344 24.0005 21.5278 24.0005C22.4213 24.0005 23.1481 23.2736 23.1481 22.3801C23.1481 21.4867 22.4213 20.7598 21.5278 20.7598ZM21.5278 23.1928C21.0797 23.1928 20.7152 22.8283 20.7152 22.3801C20.7152 21.932 21.0797 21.5675 21.5278 21.5675C21.9759 21.5675 22.3404 21.932 22.3404 22.3801C22.3404 22.8283 21.9759 23.1928 21.5278 23.1928Z" fill="black"/>
</svg>
