<svg width="38" height="38" viewBox="0 0 38 38" fill="none" xmlns="http://www.w3.org/2000/svg">
<path d="M23.9167 9H13.0833C11.9346 9 11 9.93458 11 11.0833V25.25C11 25.9392 11.5608 26.5 12.25 26.5H12.6667V27.75C12.6667 27.9801 12.8532 28.1667 13.0833 28.1667V29.9167C13.1038 30.469 13.8964 30.4686 13.9167 29.9167V28.1667H14.75V29.9167C14.7705 30.469 15.563 30.4686 15.5833 29.9167V28.1667C15.8135 28.1667 16 27.9801 16 27.75V26.5H21V27.75C21 27.9801 21.1865 28.1667 21.4167 28.1667V29.9167C21.4372 30.469 22.2297 30.4686 22.25 29.9167V28.1667H23.0833V29.9167C23.1038 30.469 23.8964 30.4686 23.9167 29.9167V28.1667C24.1468 28.1667 24.3333 27.9801 24.3333 27.75V26.5H24.75C25.4392 26.5 26 25.9392 26 25.25V11.0833C26 9.93458 25.0655 9 23.9167 9ZM22.5905 9.83333L22.3524 10.6667H14.6476L14.4095 9.83333H22.5905ZM14.4096 25.6667L14.6477 24.8333H22.3524L22.5905 25.6667H14.4096ZM15.1667 27.3333H13.5V26.5H15.1667V27.3333ZM23.5 27.3333H21.8333V26.5H23.5V27.3333ZM24.75 25.6667H23.4572L23.0673 24.3022C23.0162 24.1233 22.8528 24 22.6667 24H14.3334C14.1473 24 13.9838 24.1233 13.9327 24.3022L13.5429 25.6667H12.25C12.0203 25.6667 11.8333 25.4797 11.8333 25.25V18.1667H14.75C15.3022 18.1462 15.3018 17.3536 14.75 17.3333H11.8333V11.0833C11.8333 10.3941 12.3941 9.83333 13.0833 9.83333H13.5428L13.9327 11.1978C13.9838 11.3767 14.1473 11.5 14.3333 11.5H22.6666C22.8527 11.5 23.0162 11.3767 23.0673 11.1978L23.4572 9.83333H23.9167C24.6059 9.83333 25.1667 10.3941 25.1667 11.0833V17.3333H22.25C21.6978 17.3538 21.6982 18.1464 22.25 18.1667H25.1667V25.25C25.1667 25.4797 24.9798 25.6667 24.75 25.6667Z" fill="black"/>
<path d="M14.7335 13.9834H22.2668V21.5167H14.7335V13.9834Z" stroke="black" stroke-width="0.8"/>
<path d="M16.4167 19.8335C16.3033 19.8335 16.1903 19.7875 16.1081 19.6969C15.9534 19.5266 15.9661 19.2631 16.1364 19.1084C16.3645 18.9013 16.4741 18.7925 16.4741 18.5835C16.4741 18.3746 16.3645 18.2657 16.1364 18.0586C15.8787 17.8246 15.5256 17.504 15.5256 16.9169C15.5256 16.3297 15.8787 16.0091 16.1364 15.7751C16.3068 15.6204 16.5703 15.6331 16.725 15.8034C16.8796 15.9738 16.867 16.2373 16.6966 16.392C16.4686 16.5991 16.3589 16.7078 16.3589 16.9168C16.3589 17.1258 16.4686 17.2346 16.6966 17.4417C17.5134 18.0979 17.5129 19.0695 16.6966 19.7253C16.6168 19.7977 16.5166 19.8335 16.4167 19.8335Z" fill="black"/>
<path d="M18.5004 19.8332C18.3869 19.8332 18.274 19.7872 18.1918 19.6967C18.0371 19.5263 18.0497 19.2628 18.2201 19.1081C18.4481 18.901 18.5578 18.7922 18.5578 18.5832C18.5578 18.3743 18.4481 18.2654 18.2201 18.0584C17.4033 17.4022 17.4037 16.4306 18.2201 15.7748C18.3904 15.6202 18.654 15.6328 18.8086 15.8032C18.9634 15.9735 18.9506 16.237 18.7803 16.3917C18.5523 16.5988 18.4426 16.7076 18.4426 16.9166C18.4426 17.1255 18.5523 17.2344 18.7803 17.4414C19.5971 18.0976 19.5967 19.0692 18.7804 19.725C18.7006 19.7974 18.6003 19.8332 18.5004 19.8332Z" fill="black"/>
<path d="M20.5839 19.8331C20.4705 19.8331 20.3575 19.7871 20.2753 19.6966C20.1206 19.5263 20.1333 19.2627 20.3036 19.1081C20.5317 18.9009 20.6413 18.7921 20.6413 18.5832C20.6413 18.3742 20.5317 18.2654 20.3036 18.0583C19.4866 17.4016 19.4874 16.4307 20.3036 15.7748C20.7245 15.4183 21.2594 16.0065 20.8638 16.3917C20.6358 16.5988 20.5262 16.7076 20.5262 16.9166C20.5262 17.1255 20.6358 17.2343 20.8638 17.4414C21.6806 18.0976 21.6802 19.0691 20.8639 19.725C20.784 19.7974 20.6838 19.8331 20.5839 19.8331Z" fill="black"/>
</svg>
