<svg width="38" height="38" viewBox="0 0 38 38" fill="none" xmlns="http://www.w3.org/2000/svg">
<path d="M25.9894 18.7503L23.7187 9.28894C23.6781 9.11948 23.5265 9 23.3522 9H14.6478C14.4735 9 14.3219 9.11948 14.2812 9.28894L12.0106 18.7503C11.9538 18.9868 12.1331 19.2152 12.3771 19.2152H16.9515C16.7275 19.7671 16.67 20.3997 16.7996 21.0012C15.5871 22.3077 15.3134 24.3952 15.8749 26.0573C15.178 26.1898 14.6493 26.8032 14.6493 27.5381V27.9212C14.6493 28.1293 14.8181 28.2981 15.0262 28.2981H22.9738C23.1819 28.2981 23.3507 28.1293 23.3507 27.9212V27.5381C23.3507 26.8032 22.822 26.1898 22.1251 26.0573C22.6867 24.3949 22.4126 22.3075 21.2004 21.0012C21.33 20.3997 21.2726 19.7671 21.0485 19.2152H25.6229C25.8662 19.2152 26.0464 18.9875 25.9894 18.7503ZM14.5816 11.2676H23.4184L24.7816 16.9475H13.2185L14.5816 11.2676ZM23.0551 9.75383L23.2375 10.5138H14.7625L14.9449 9.75383H23.0551ZM22.5968 27.5381V27.5442H15.4031V27.5381C15.4031 27.1224 15.7413 26.7843 16.157 26.7843H21.843C22.2587 26.7843 22.5968 27.1224 22.5968 27.5381ZM20.4214 21.0068C20.3813 21.1421 20.4201 21.2886 20.5221 21.3862C21.6191 22.437 21.9729 24.4282 21.3322 26.0304H16.6678C16.0261 24.4255 16.3829 22.4351 17.4779 21.3862C17.5799 21.2885 17.6187 21.1421 17.5786 21.0068C17.3975 20.3969 17.4797 19.7274 17.79 19.2152H20.2099C20.5203 19.7273 20.6024 20.3969 20.4214 21.0068ZM12.8551 18.4613L13.0375 17.7014H24.9624L25.1448 18.4613C24.9613 18.4613 13.1254 18.4613 12.8551 18.4613Z" fill="black"/>
</svg>
