<svg width="38" height="38" viewBox="0 0 38 38" fill="none" xmlns="http://www.w3.org/2000/svg">
<path d="M26.45 9H12.5009C11.6733 9 11 9.6733 11 10.5009V26.7106C11 27.5382 11.6733 28.2115 12.5009 28.2115H26.45C27.2776 28.2115 27.9509 27.5382 27.9509 26.7106V10.5009C27.9509 9.6733 27.2776 9 26.45 9ZM12.5009 9.75045H26.45C26.8638 9.75045 27.2005 10.0871 27.2005 10.5009V13.5211H11.7504V10.5009C11.7504 10.0871 12.0871 9.75045 12.5009 9.75045ZM26.45 27.461H12.5009C12.0871 27.461 11.7504 27.1244 11.7504 26.7106V14.2715H27.2005V26.7106C27.2004 27.1244 26.8638 27.461 26.45 27.461Z" fill="black"/>
<path d="M13.6361 12.7649C14.2585 12.7649 14.7648 12.2586 14.7648 11.6362C14.7648 11.0138 14.2585 10.5074 13.6361 10.5074C13.0137 10.5074 12.5073 11.0138 12.5073 11.6362C12.5074 12.2586 13.0137 12.7649 13.6361 12.7649V12.7649ZM13.6361 11.2579C13.8447 11.2579 14.0144 11.4276 14.0144 11.6362C14.0144 11.8448 13.8447 12.0145 13.6361 12.0145C13.4275 12.0145 13.2578 11.8448 13.2578 11.6362C13.2578 11.4276 13.4275 11.2579 13.6361 11.2579V11.2579Z" fill="black"/>
<circle cx="19.5" cy="21.5" r="4.1" stroke="black" stroke-width="0.8"/>
<path d="M15.8965 12.7649H23.0548C23.262 12.7649 23.43 12.597 23.43 12.3897V10.8827C23.43 10.6754 23.262 10.5074 23.0548 10.5074H15.8965C15.6892 10.5074 15.5212 10.6754 15.5212 10.8827V12.3897C15.5212 12.597 15.6892 12.7649 15.8965 12.7649ZM16.2717 11.2579H22.6796V12.0145H16.2717V11.2579Z" fill="black"/>
<path d="M29.0006 17.8527C29.0006 17.7442 29.0446 17.6361 29.1313 17.5574C29.2943 17.4093 29.5465 17.4215 29.6945 17.5845C29.8926 17.8027 29.9968 17.9076 30.1968 17.9076C30.3967 17.9076 30.5009 17.8027 30.699 17.5845C30.923 17.3378 31.2298 17 31.7916 17C32.3535 17 32.6603 17.3378 32.8843 17.5845C33.0323 17.7475 33.0201 17.9997 32.8571 18.1477C32.6941 18.2957 32.4419 18.2836 32.2939 18.1205C32.0957 17.9023 31.9916 17.7974 31.7917 17.7974C31.5917 17.7974 31.4876 17.9023 31.2894 18.1205C30.6615 18.9021 29.7317 18.9017 29.1042 18.1205C29.0348 18.0442 29.0006 17.9483 29.0006 17.8527Z" fill="black"/>
<path d="M29.0004 19.8457C29.0004 19.7372 29.0444 19.6291 29.1311 19.5504C29.2941 19.4024 29.5463 19.4145 29.6943 19.5775C29.8925 19.7957 29.9966 19.9006 30.1965 19.9006C30.3965 19.9006 30.5006 19.7957 30.6988 19.5775C31.3267 18.7959 32.2565 18.7963 32.884 19.5775C33.032 19.7405 33.0199 19.9927 32.8569 20.1407C32.6939 20.2888 32.4417 20.2766 32.2937 20.1136C32.0955 19.8954 31.9914 19.7905 31.7914 19.7905C31.5915 19.7905 31.4873 19.8954 31.2892 20.1136C30.6613 20.8952 29.7316 20.8948 29.104 20.1136C29.0346 20.0373 29.0004 19.9413 29.0004 19.8457V19.8457Z" fill="black"/>
<path d="M29.0001 21.8399C29.0001 21.7313 29.0441 21.6233 29.1307 21.5446C29.2937 21.3965 29.5459 21.4087 29.6939 21.5717C29.8921 21.7899 29.9962 21.8948 30.1962 21.8948C30.3962 21.8948 30.5003 21.7899 30.6985 21.5717C31.3269 20.7898 32.256 20.7906 32.8837 21.5717C33.2248 21.9744 32.6619 22.4863 32.2933 22.1078C32.0952 21.8896 31.991 21.7846 31.7911 21.7846C31.5911 21.7846 31.487 21.8896 31.2888 22.1078C30.6609 22.8893 29.7312 22.889 29.1036 22.1078C29.0343 22.0314 29.0001 21.9355 29.0001 21.8399V21.8399Z" fill="black"/>
</svg>
