<svg width="38" height="38" viewBox="0 0 38 38" fill="none" xmlns="http://www.w3.org/2000/svg">
<path d="M17.5345 11.3038H19.4568C19.6683 11.3038 19.8398 11.1323 19.8398 10.9209C19.8398 10.7094 19.6683 10.538 19.4568 10.538H17.5345C17.3231 10.538 17.1516 10.7094 17.1516 10.9209C17.1516 11.1324 17.3231 11.3038 17.5345 11.3038Z" fill="black"/>
<path d="M24.4597 9C24.0094 9 12.9239 9 12.5316 9C11.6871 9 11 9.6871 11 10.5316V25.5355C11 26.2495 11.4912 26.8509 12.1534 27.0198V27.0734C12.1534 27.9179 12.8405 28.605 13.685 28.605H23.3063C24.1508 28.605 24.8379 27.9179 24.8379 27.0734V27.0198C25.5001 26.8509 25.9913 26.2495 25.9913 25.5355V10.5316C25.9913 9.6871 25.3042 9 24.4597 9ZM23.2051 9.76582L22.6738 12.0758H14.3175L13.7863 9.76582H23.2051ZM24.0721 27.0734C24.0721 27.4957 23.7286 27.8392 23.3063 27.8392H13.685C13.2628 27.8392 12.9192 27.4957 12.9192 27.0734V27.0671H24.0721V27.0734ZM25.2255 25.5355C25.2255 25.9578 24.882 26.3013 24.4597 26.3013C23.8362 26.3013 13.0747 26.3013 12.5316 26.3013C12.1094 26.3013 11.7658 25.9578 11.7658 25.5355V10.5316C11.7658 10.1094 12.1094 9.76582 12.5316 9.76582H13.0004L13.6395 12.5445C13.6795 12.7184 13.8343 12.8416 14.0127 12.8416H22.9786C23.157 12.8416 23.3118 12.7184 23.3517 12.5445L23.9909 9.76582H24.4597C24.882 9.76582 25.2255 10.1094 25.2255 10.5316V25.5355Z" fill="black"/>
<path d="M14.8431 16.8817H14.4586C14.2471 16.8817 14.0757 17.0532 14.0757 17.2646C14.0757 17.4761 14.2471 17.6475 14.4586 17.6475H14.8431C15.0545 17.6475 15.226 17.4761 15.226 17.2646C15.226 17.0531 15.0546 16.8817 14.8431 16.8817Z" fill="black"/>
<path d="M16.7657 16.8817H16.3812C16.1697 16.8817 15.9983 17.0532 15.9983 17.2646C15.9983 17.4761 16.1697 17.6475 16.3812 17.6475H16.7657C16.9771 17.6475 17.1486 17.4761 17.1486 17.2646C17.1486 17.0531 16.9772 16.8817 16.7657 16.8817Z" fill="black"/>
<path d="M18.6878 16.8817H18.3033C18.0918 16.8817 17.9204 17.0532 17.9204 17.2646C17.9204 17.4761 18.0918 17.6475 18.3033 17.6475H18.6878C18.8992 17.6475 19.0707 17.4761 19.0707 17.2646C19.0707 17.0531 18.8992 16.8817 18.6878 16.8817Z" fill="black"/>
<path d="M22.5328 16.8817H22.1483C21.9368 16.8817 21.7654 17.0532 21.7654 17.2646C21.7654 17.4761 21.9368 17.6475 22.1483 17.6475H22.5328C22.7442 17.6475 22.9157 17.4761 22.9157 17.2646C22.9157 17.0531 22.7442 16.8817 22.5328 16.8817Z" fill="black"/>
<path d="M20.6102 16.8817H20.2257C20.0142 16.8817 19.8428 17.0532 19.8428 17.2646C19.8428 17.4761 20.0142 17.6475 20.2257 17.6475H20.6102C20.8216 17.6475 20.9931 17.4761 20.9931 17.2646C20.9931 17.0531 20.8216 16.8817 20.6102 16.8817Z" fill="black"/>
<path d="M14.8431 18.4196H14.4586C14.2471 18.4196 14.0757 18.591 14.0757 18.8025C14.0757 19.0139 14.2471 19.1854 14.4586 19.1854H14.8431C15.0545 19.1854 15.226 19.0139 15.226 18.8025C15.226 18.591 15.0546 18.4196 14.8431 18.4196Z" fill="black"/>
<path d="M16.7657 18.4196H16.3812C16.1697 18.4196 15.9983 18.591 15.9983 18.8025C15.9983 19.0139 16.1697 19.1854 16.3812 19.1854H16.7657C16.9771 19.1854 17.1486 19.0139 17.1486 18.8025C17.1486 18.591 16.9772 18.4196 16.7657 18.4196Z" fill="black"/>
<path d="M18.6878 18.4196H18.3033C18.0918 18.4196 17.9204 18.591 17.9204 18.8025C17.9204 19.0139 18.0918 19.1854 18.3033 19.1854H18.6878C18.8992 19.1854 19.0707 19.0139 19.0707 18.8025C19.0707 18.591 18.8992 18.4196 18.6878 18.4196Z" fill="black"/>
<path d="M22.5328 18.4196H22.1483C21.9368 18.4196 21.7654 18.591 21.7654 18.8025C21.7654 19.0139 21.9368 19.1854 22.1483 19.1854H22.5328C22.7442 19.1854 22.9157 19.0139 22.9157 18.8025C22.9157 18.591 22.7442 18.4196 22.5328 18.4196Z" fill="black"/>
<path d="M20.6102 18.4196H20.2257C20.0142 18.4196 19.8428 18.591 19.8428 18.8025C19.8428 19.0139 20.0142 19.1854 20.2257 19.1854H20.6102C20.8216 19.1854 20.9931 19.0139 20.9931 18.8025C20.9931 18.591 20.8216 18.4196 20.6102 18.4196Z" fill="black"/>
<path d="M14.8431 19.9575H14.4586C14.2471 19.9575 14.0757 20.129 14.0757 20.3404C14.0757 20.5519 14.2471 20.7233 14.4586 20.7233H14.8431C15.0545 20.7233 15.226 20.5519 15.226 20.3404C15.226 20.129 15.0546 19.9575 14.8431 19.9575Z" fill="black"/>
<path d="M16.7657 19.9575H16.3812C16.1697 19.9575 15.9983 20.129 15.9983 20.3404C15.9983 20.5519 16.1697 20.7233 16.3812 20.7233H16.7657C16.9771 20.7233 17.1486 20.5519 17.1486 20.3404C17.1486 20.129 16.9772 19.9575 16.7657 19.9575Z" fill="black"/>
<path d="M18.6878 19.9575H18.3033C18.0918 19.9575 17.9204 20.129 17.9204 20.3404C17.9204 20.5519 18.0918 20.7233 18.3033 20.7233H18.6878C18.8992 20.7233 19.0707 20.5519 19.0707 20.3404C19.0707 20.129 18.8992 19.9575 18.6878 19.9575Z" fill="black"/>
<path d="M22.5328 19.9575H22.1483C21.9368 19.9575 21.7654 20.129 21.7654 20.3404C21.7654 20.5519 21.9368 20.7233 22.1483 20.7233H22.5328C22.7442 20.7233 22.9157 20.5519 22.9157 20.3404C22.9157 20.129 22.7442 19.9575 22.5328 19.9575Z" fill="black"/>
<path d="M20.6102 19.9575H20.2257C20.0142 19.9575 19.8428 20.129 19.8428 20.3404C19.8428 20.5519 20.0142 20.7233 20.2257 20.7233H20.6102C20.8216 20.7233 20.9931 20.5519 20.9931 20.3404C20.9931 20.129 20.8216 19.9575 20.6102 19.9575Z" fill="black"/>
<path d="M14.8431 21.4954H14.4586C14.2471 21.4954 14.0757 21.6668 14.0757 21.8783C14.0757 22.0897 14.2471 22.2612 14.4586 22.2612H14.8431C15.0545 22.2612 15.226 22.0897 15.226 21.8783C15.226 21.6668 15.0546 21.4954 14.8431 21.4954Z" fill="black"/>
<path d="M16.7657 21.4954H16.3812C16.1697 21.4954 15.9983 21.6668 15.9983 21.8783C15.9983 22.0897 16.1697 22.2612 16.3812 22.2612H16.7657C16.9771 22.2612 17.1486 22.0897 17.1486 21.8783C17.1486 21.6668 16.9772 21.4954 16.7657 21.4954Z" fill="black"/>
<path d="M18.6878 21.4954H18.3033C18.0918 21.4954 17.9204 21.6668 17.9204 21.8783C17.9204 22.0897 18.0918 22.2612 18.3033 22.2612H18.6878C18.8992 22.2612 19.0707 22.0897 19.0707 21.8783C19.0707 21.6668 18.8992 21.4954 18.6878 21.4954Z" fill="black"/>
<path d="M22.5328 21.4954H22.1483C21.9368 21.4954 21.7654 21.6668 21.7654 21.8783C21.7654 22.0897 21.9368 22.2612 22.1483 22.2612H22.5328C22.7442 22.2612 22.9157 22.0897 22.9157 21.8783C22.9157 21.6668 22.7442 21.4954 22.5328 21.4954Z" fill="black"/>
<path d="M20.6102 21.4954H20.2257C20.0142 21.4954 19.8428 21.6668 19.8428 21.8783C19.8428 22.0897 20.0142 22.2612 20.2257 22.2612H20.6102C20.8216 22.2612 20.9931 22.0897 20.9931 21.8783C20.9931 21.6668 20.8216 21.4954 20.6102 21.4954Z" fill="black"/>
<path d="M14.8431 23.0332H14.4586C14.2471 23.0332 14.0757 23.2047 14.0757 23.4161C14.0757 23.6276 14.2471 23.799 14.4586 23.799H14.8431C15.0545 23.799 15.226 23.6276 15.226 23.4161C15.226 23.2047 15.0546 23.0332 14.8431 23.0332Z" fill="black"/>
<path d="M16.7657 23.0332H16.3812C16.1697 23.0332 15.9983 23.2047 15.9983 23.4161C15.9983 23.6276 16.1697 23.799 16.3812 23.799H16.7657C16.9771 23.799 17.1486 23.6276 17.1486 23.4161C17.1486 23.2047 16.9772 23.0332 16.7657 23.0332Z" fill="black"/>
<path d="M18.6878 23.0332H18.3033C18.0918 23.0332 17.9204 23.2047 17.9204 23.4161C17.9204 23.6276 18.0918 23.799 18.3033 23.799H18.6878C18.8992 23.799 19.0707 23.6276 19.0707 23.4161C19.0707 23.2047 18.8992 23.0332 18.6878 23.0332Z" fill="black"/>
<path d="M22.5328 23.0332H22.1483C21.9368 23.0332 21.7654 23.2047 21.7654 23.4161C21.7654 23.6276 21.9368 23.799 22.1483 23.799H22.5328C22.7442 23.799 22.9157 23.6276 22.9157 23.4161C22.9157 23.2047 22.7442 23.0332 22.5328 23.0332Z" fill="black"/>
<path d="M20.6102 23.0332H20.2257C20.0142 23.0332 19.8428 23.2047 19.8428 23.4161C19.8428 23.6276 20.0142 23.799 20.2257 23.799H20.6102C20.8216 23.799 20.9931 23.6276 20.9931 23.4161C20.9931 23.2047 20.8216 23.0332 20.6102 23.0332Z" fill="black"/>
<path d="M14.8431 24.5712H14.4586C14.2471 24.5712 14.0757 24.7426 14.0757 24.9541C14.0757 25.1656 14.2471 25.337 14.4586 25.337H14.8431C15.0545 25.337 15.226 25.1656 15.226 24.9541C15.226 24.7426 15.0546 24.5712 14.8431 24.5712Z" fill="black"/>
<path d="M16.7657 24.5712H16.3812C16.1697 24.5712 15.9983 24.7426 15.9983 24.9541C15.9983 25.1656 16.1697 25.337 16.3812 25.337H16.7657C16.9771 25.337 17.1486 25.1656 17.1486 24.9541C17.1486 24.7426 16.9772 24.5712 16.7657 24.5712Z" fill="black"/>
<path d="M18.6878 24.5712H18.3033C18.0918 24.5712 17.9204 24.7426 17.9204 24.9541C17.9204 25.1656 18.0918 25.337 18.3033 25.337H18.6878C18.8992 25.337 19.0707 25.1656 19.0707 24.9541C19.0707 24.7426 18.8992 24.5712 18.6878 24.5712Z" fill="black"/>
<path d="M22.5328 24.5712H22.1483C21.9368 24.5712 21.7654 24.7426 21.7654 24.9541C21.7654 25.1656 21.9368 25.337 22.1483 25.337H22.5328C22.7442 25.337 22.9157 25.1656 22.9157 24.9541C22.9157 24.7426 22.7442 24.5712 22.5328 24.5712Z" fill="black"/>
<path d="M20.6102 24.5712H20.2257C20.0142 24.5712 19.8428 24.7426 19.8428 24.9541C19.8428 25.1656 20.0142 25.337 20.2257 25.337H20.6102C20.8216 25.337 20.9931 25.1656 20.9931 24.9541C20.9931 24.7426 20.8216 24.5712 20.6102 24.5712Z" fill="black"/>
<path d="M18.4956 13.806C17.8605 13.806 17.3438 14.3228 17.3438 14.9579C17.3438 15.593 17.8605 16.1098 18.4956 16.1098C19.1308 16.1098 19.6475 15.593 19.6475 14.9579C19.6475 14.3228 19.1308 13.806 18.4956 13.806ZM18.4956 15.344C18.2827 15.344 18.1096 15.1708 18.1096 14.9579C18.1096 14.745 18.2827 14.5719 18.4956 14.5719C18.7085 14.5719 18.8817 14.745 18.8817 14.9579C18.8817 15.1708 18.7085 15.344 18.4956 15.344Z" fill="black"/>
<path d="M26.9292 16.6094C26.9292 16.4987 26.9741 16.3884 27.0625 16.3081C27.2289 16.157 27.4862 16.1694 27.6373 16.3357C27.8395 16.5584 27.9458 16.6655 28.1498 16.6655C28.3539 16.6655 28.4602 16.5584 28.6624 16.3357C28.891 16.084 29.204 15.7393 29.7774 15.7393C30.3508 15.7393 30.6638 16.084 30.8924 16.3357C31.0434 16.5021 31.0311 16.7594 30.8647 16.9105C30.6984 17.0615 30.441 17.0491 30.29 16.8827C30.0877 16.6601 29.9815 16.553 29.7774 16.553C29.5734 16.553 29.4671 16.6601 29.2649 16.8827C28.6241 17.6804 27.6753 17.6799 27.0349 16.8827C26.9641 16.8049 26.9292 16.707 26.9292 16.6094Z" fill="black"/>
<path d="M26.9292 18.6438C26.9292 18.5331 26.9742 18.4228 27.0626 18.3425C27.2289 18.1914 27.4863 18.2038 27.6373 18.3702C27.8396 18.5929 27.9458 18.6999 28.1499 18.6999C28.3539 18.6999 28.4602 18.5929 28.6624 18.3702C29.3032 17.5725 30.252 17.5729 30.8924 18.3702C31.0434 18.5365 31.0311 18.7939 30.8647 18.9449C30.6984 19.096 30.441 19.0836 30.29 18.9172C30.0878 18.6945 29.9815 18.5875 29.7774 18.5875C29.5734 18.5875 29.4671 18.6945 29.2649 18.9172C28.6241 19.7148 27.6753 19.7145 27.0349 18.9173C26.9641 18.8393 26.9292 18.7414 26.9292 18.6438Z" fill="black"/>
<path d="M26.9291 20.6784C26.9291 20.5677 26.974 20.4574 27.0624 20.3771C27.2288 20.226 27.4861 20.2384 27.6372 20.4047C27.8394 20.6274 27.9457 20.7345 28.1497 20.7345C28.3538 20.7345 28.4601 20.6274 28.6623 20.4047C29.3036 19.6069 30.2517 19.6077 30.8923 20.4047C31.2404 20.8157 30.6659 21.3381 30.2898 20.9518C30.0876 20.7291 29.9813 20.6221 29.7773 20.6221C29.5732 20.6221 29.4669 20.7291 29.2647 20.9518C28.6239 21.7494 27.6752 21.749 27.0347 20.9518C26.964 20.8739 26.9291 20.776 26.9291 20.6784Z" fill="black"/>
</svg>
