<svg width="38" height="38" viewBox="0 0 38 38" fill="none" xmlns="http://www.w3.org/2000/svg">
<path d="M27.0806 11H10.5323C9.68737 11 9 11.6874 9 12.5323V17.1571C9 18.002 9.68737 18.6894 10.5323 18.6894H10.5385V20.6141C10.5385 20.8257 10.71 20.9972 10.9216 20.9972H26.6913C26.9029 20.9972 27.0744 20.8257 27.0744 20.6141V18.6894H27.0806C27.9255 18.6894 28.6129 18.002 28.6129 17.1571V12.5323C28.6129 11.6874 27.9255 11 27.0806 11ZM26.3083 20.231H11.3046V18.6894H26.3083V20.231ZM27.8468 17.1571C27.8468 17.5796 27.5031 17.9233 27.0806 17.9233C26.1244 17.9233 11.1671 17.9233 10.5323 17.9233C10.1098 17.9233 9.76613 17.5796 9.76613 17.1571V12.5323C9.76613 12.1098 10.1098 11.7661 10.5323 11.7661H27.0806C27.5031 11.7661 27.8468 12.1098 27.8468 12.5323V17.1571Z" fill="black"/>
<path d="M15.3449 21.7698C15.1333 21.7698 14.9618 21.9413 14.9618 22.1528V27.153C14.9618 27.7901 14.4435 28.3084 13.8063 28.3084C13.1692 28.3084 12.6509 27.7901 12.6509 27.153C12.6509 26.5159 13.1692 25.9975 13.8063 25.9975C14.0179 25.9975 14.1894 25.826 14.1894 25.6145C14.1894 25.403 14.0179 25.2314 13.8063 25.2314C12.7468 25.2314 11.8848 26.0934 11.8848 27.153C11.8848 28.2125 12.7468 29.0745 13.8063 29.0745C14.8659 29.0745 15.7279 28.2125 15.7279 27.153V22.1528C15.7279 21.9413 15.5564 21.7698 15.3449 21.7698Z" fill="black"/>
<path d="M23.8066 25.2314C23.595 25.2314 23.4236 25.403 23.4236 25.6145C23.4236 25.826 23.595 25.9975 23.8066 25.9975C24.4437 25.9975 24.9621 26.5159 24.9621 27.153C24.9621 27.7901 24.4437 28.3084 23.8066 28.3084C23.1695 28.3084 22.6511 27.7901 22.6511 27.153V22.1528C22.6511 21.9413 22.4796 21.7698 22.2681 21.7698C22.0565 21.7698 21.885 21.9413 21.885 22.1528V27.153C21.885 28.2125 22.747 29.0745 23.8066 29.0745C24.8662 29.0745 25.7282 28.2125 25.7282 27.153C25.7282 26.0934 24.8662 25.2314 23.8066 25.2314Z" fill="black"/>
<path d="M17.6526 21.7698C17.441 21.7698 17.2695 21.9413 17.2695 22.1528V24.8452C17.2695 25.0567 17.441 25.2283 17.6526 25.2283C17.8642 25.2283 18.0357 25.0567 18.0357 24.8452V22.1528C18.0357 21.9413 17.8642 21.7698 17.6526 21.7698Z" fill="black"/>
<path d="M19.9602 21.7698C19.7486 21.7698 19.5771 21.9413 19.5771 22.1528V27.153C19.5771 27.3645 19.7486 27.536 19.9602 27.536C20.1718 27.536 20.3433 27.3645 20.3433 27.153V22.1528C20.3433 21.9413 20.1717 21.7698 19.9602 21.7698Z" fill="black"/>
<path d="M13.6136 12.5383H12.4597C12.2482 12.5383 12.0767 12.7099 12.0767 12.9214C12.0767 13.1329 12.2482 13.3045 12.4597 13.3045H13.6136C13.8252 13.3045 13.9967 13.1329 13.9967 12.9214C13.9967 12.7099 13.8252 12.5383 13.6136 12.5383Z" fill="black"/>
</svg>
