<svg width="38" height="38" viewBox="0 0 38 38" fill="none" xmlns="http://www.w3.org/2000/svg">
<path d="M12.591 25.9702L12.591 25.9702C12.4467 25.2262 12.3251 24.4667 12.2297 23.7126C11.6905 19.451 11.9317 15.0927 12.9464 10.759C12.9999 10.5283 13.1301 10.3226 13.3158 10.1756C13.5015 10.0286 13.7316 9.94908 13.9684 9.95001M12.591 25.9702L13.9683 10M12.591 25.9702C12.717 26.6178 13.0543 27.2052 13.5502 27.6404M12.591 25.9702L13.5502 27.6404M13.9684 9.95001C13.9684 9.95001 13.9685 9.95001 13.9685 9.95001L13.9683 10M13.9684 9.95001H13.9683V10M13.9684 9.95001H24.0316M13.9683 10H24.0317M24.0316 9.95001C24.0316 9.95001 24.0315 9.95001 24.0315 9.95001L24.0317 10M24.0316 9.95001H24.0317V10M24.0316 9.95001C24.2684 9.94907 24.4986 10.0286 24.6843 10.1756C24.8699 10.3226 25.0002 10.5283 25.0536 10.759C26.0683 15.0927 26.3095 19.451 25.7703 23.7127C25.6749 24.4669 25.5533 25.2264 25.409 25.9704L25.409 25.9704C25.283 26.618 24.9456 27.2054 24.4498 27.6405C23.9657 28.0653 23.3574 28.3215 22.7161 28.3714M24.0317 10L22.7161 28.3714M22.7161 28.3714V28.3248H22.6661L22.6692 28.3747C22.6849 28.3737 22.7005 28.3726 22.7161 28.3714ZM25.0098 23.6167C25.1594 22.4327 25.2476 21.2417 25.2742 20.0485H20.3831V25.0306V25.0307C20.3828 25.3003 20.2756 25.5588 20.0849 25.7494C19.8943 25.9401 19.6358 26.0473 19.3662 26.0476H19.3661H18.6339H18.6338C18.3642 26.0473 18.1057 25.9401 17.9151 25.7494C17.7244 25.5588 17.6172 25.3003 17.6169 25.0307V25.0306V20.0484H12.7258C12.7524 21.2415 12.8407 22.4325 12.9902 23.6165C13.0836 24.3541 13.2024 25.0969 13.3435 25.8244C13.4411 26.3273 13.7103 26.7807 14.1051 27.1071C14.4999 27.4335 14.9958 27.6127 15.5081 27.6141H22.4919C23.0042 27.6127 23.5001 27.4335 23.8949 27.1071C24.2897 26.7807 24.5589 26.3273 24.6565 25.8244C24.7976 25.0969 24.9163 24.3541 25.0098 23.6167ZM25.0098 23.6167C25.0098 23.6167 25.0098 23.6167 25.0098 23.6167L25.0594 23.623L25.0098 23.6167ZM13.5502 27.6404C14.0342 28.0652 14.6426 28.3215 15.2839 28.3714L13.5502 27.6404ZM20.6664 28.3306V28.3806H20.6164V28.3306H20.6664ZM17.3836 28.3806V28.3306H17.3336V28.3806H17.3836ZM13.6927 10.9339L13.6927 10.9338C13.7072 10.8718 13.7423 10.8165 13.7923 10.777C13.8424 10.7375 13.9043 10.7162 13.968 10.7166H13.9683H14.0796L16.6471 16.8142C16.6471 16.8142 16.6471 16.8142 16.6471 16.8142C16.6763 16.8838 16.7254 16.9431 16.7883 16.9849C16.8511 17.0267 16.9248 17.0489 17.0003 17.049H17.0003H20.9997C21.0752 17.049 21.1489 17.0267 21.2118 16.9849C21.2746 16.9431 21.3237 16.8838 21.3529 16.8142C21.353 16.8142 21.353 16.8142 21.353 16.8142L23.9205 10.7166L24.0318 10.7166L24.032 10.7166C24.0957 10.7162 24.1577 10.7375 24.2077 10.777C24.2577 10.8165 24.2928 10.8718 24.3073 10.9338L24.3073 10.9339C24.9532 13.6698 25.2806 16.471 25.2831 19.282H12.7169C12.7193 16.471 13.0468 13.6698 13.6927 10.9339ZM17.2548 16.2824L14.9113 10.7166H23.0887L20.7452 16.2824H17.2548ZM18.3834 20.0485H19.6166V25.0306C19.6165 25.097 19.5901 25.1606 19.5431 25.2076C19.4961 25.2546 19.4325 25.281 19.3661 25.2811H18.6339C18.5675 25.281 18.5038 25.2546 18.4569 25.2076C18.4099 25.1606 18.3835 25.097 18.3834 25.0306V20.0485ZM16.617 28.6139H16.0504V28.3806H16.617V28.6139ZM21.9496 28.6139H21.383V28.3806H21.9496V28.6139Z" fill="black" stroke="black" stroke-width="0.1"/>
<path d="M18.9998 15.3827H18.9999C19.2734 15.3827 19.5409 15.3015 19.7683 15.1496C19.9958 14.9976 20.173 14.7816 20.2777 14.5288C20.3824 14.2761 20.4098 13.998 20.3564 13.7297C20.3031 13.4614 20.1713 13.2149 19.9779 13.0215C19.7845 12.8281 19.538 12.6963 19.2697 12.643C19.0014 12.5896 18.7233 12.617 18.4706 12.7217C18.2178 12.8264 18.0018 13.0036 17.8498 13.2311C17.6979 13.4585 17.6167 13.726 17.6167 13.9995L17.6167 13.9996C17.6172 14.3663 17.763 14.7178 18.0223 14.9771C18.2816 15.2364 18.6331 15.3822 18.9998 15.3827ZM18.9999 13.383C19.1218 13.383 19.241 13.4191 19.3424 13.4869C19.4438 13.5546 19.5229 13.6509 19.5695 13.7636C19.6162 13.8762 19.6284 14.0002 19.6046 14.1198C19.5808 14.2394 19.5221 14.3493 19.4359 14.4355C19.3496 14.5217 19.2398 14.5804 19.1202 14.6042C19.0006 14.628 18.8766 14.6158 18.7639 14.5692C18.6513 14.5225 18.555 14.4435 18.4872 14.3421C18.4195 14.2407 18.3833 14.1215 18.3833 13.9995C18.3835 13.8361 18.4485 13.6793 18.5641 13.5638C18.6797 13.4482 18.8364 13.3831 18.9999 13.383Z" fill="black" stroke="black" stroke-width="0.1"/>
<path d="M18 12.0497H18.3333C18.435 12.0497 18.5325 12.0093 18.6043 11.9374C18.6762 11.8656 18.7166 11.7681 18.7166 11.6664C18.7166 11.5648 18.6762 11.4673 18.6043 11.3954C18.5325 11.3235 18.435 11.2831 18.3333 11.2831H18C17.8984 11.2831 17.8009 11.3235 17.729 11.3954C17.6571 11.4673 17.6167 11.5648 17.6167 11.6664C17.6167 11.7681 17.6571 11.8656 17.729 11.9374C17.8009 12.0093 17.8984 12.0497 18 12.0497Z" fill="black" stroke="black" stroke-width="0.1"/>
<path d="M19.6665 12.0497H19.9998C20.1015 12.0497 20.199 12.0093 20.2708 11.9374C20.3427 11.8656 20.3831 11.7681 20.3831 11.6664C20.3831 11.5648 20.3427 11.4673 20.2708 11.3954C20.199 11.3235 20.1015 11.2831 19.9998 11.2831H19.6665C19.5649 11.2831 19.4674 11.3235 19.3955 11.3954C19.3236 11.4673 19.2833 11.5648 19.2833 11.6664C19.2833 11.7681 19.3236 11.8656 19.3955 11.9374C19.4674 12.0093 19.5649 12.0497 19.6665 12.0497Z" fill="black" stroke="black" stroke-width="0.1"/>
</svg>
