<svg width="38" height="38" viewBox="0 0 38 38" fill="none" xmlns="http://www.w3.org/2000/svg">
<path d="M13.3611 16.9248C13.4611 16.9248 13.561 16.8867 13.6373 16.8104L14.7092 15.7385C14.8618 15.5859 14.8618 15.3386 14.7092 15.1861C14.5567 15.0335 14.3094 15.0335 14.1568 15.1861L13.0849 16.258C12.9323 16.4106 12.9323 16.6579 13.0849 16.8104C13.1612 16.8867 13.2611 16.9248 13.3611 16.9248Z" fill="black"/>
<path d="M14.213 17.9388C14.2893 18.0151 14.3893 18.0532 14.4893 18.0532C14.5892 18.0532 14.6892 18.0151 14.7655 17.9388L16.7119 15.9924C16.8644 15.8398 16.8644 15.5925 16.7119 15.44C16.5593 15.2874 16.312 15.2874 16.1594 15.44L14.213 17.3864C14.0605 17.5389 14.0605 17.7863 14.213 17.9388Z" fill="black"/>
<path d="M27.6012 11H10.3988C9.6275 11 9 11.6275 9 12.3988V23.68C9 24.337 9.45535 24.8897 10.067 25.039V26.1735C10.067 26.3893 10.242 26.5641 10.4577 26.5641H27.5423C27.758 26.5641 27.9329 26.3893 27.9329 26.1735V25.039C28.5446 24.8897 29 24.337 29 23.68V12.3988C29 11.6275 28.3725 11 27.6012 11ZM23.3592 20.7495H22.4799V15.3292H23.3592V20.7495ZM9.78125 23.68V12.3988C9.78125 12.0583 10.0583 11.7812 10.3988 11.7812H23.3592V14.548H22.0893C21.8736 14.548 21.6986 14.7229 21.6986 14.9386V21.1402C21.6986 21.3559 21.8736 21.5308 22.0893 21.5308H23.3592V24.2975H10.3988C10.0583 24.2975 9.78125 24.0205 9.78125 23.68ZM27.1517 25.7829H10.8483V25.0787H27.1517V25.7829H27.1517ZM28.2188 23.68C28.2188 24.0205 27.9417 24.2975 27.6012 24.2975H24.1404V11.7812H27.6012C27.9417 11.7812 28.2188 12.0583 28.2188 12.3988V23.68Z" fill="black"/>
<path d="M26.1795 16.6816C25.5168 16.6816 24.9778 17.2207 24.9778 17.8833C24.9778 18.5459 25.5168 19.085 26.1795 19.085C26.8421 19.085 27.3811 18.5459 27.3811 17.8833C27.3811 17.2207 26.8421 16.6816 26.1795 16.6816ZM26.1795 18.3037C25.9476 18.3037 25.759 18.1151 25.759 17.8833C25.759 17.6514 25.9476 17.4629 26.1795 17.4629C26.4113 17.4629 26.5999 17.6514 26.5999 17.8833C26.5999 18.1151 26.4113 18.3037 26.1795 18.3037Z" fill="black"/>
<path d="M26.9905 15.042H25.3684C25.1527 15.042 24.9778 15.2169 24.9778 15.4326C24.9778 15.6484 25.1527 15.8232 25.3684 15.8232H26.9905C27.2062 15.8232 27.3811 15.6484 27.3811 15.4326C27.3811 15.2169 27.2062 15.042 26.9905 15.042Z" fill="black"/>
<path d="M26.1795 20.0774C25.5168 20.0774 24.9778 20.6165 24.9778 21.2791C24.9778 21.9417 25.5168 22.4808 26.1795 22.4808C26.8421 22.4808 27.3811 21.9417 27.3811 21.2791C27.3811 20.6165 26.8421 20.0774 26.1795 20.0774ZM26.1795 21.6995C25.9476 21.6995 25.759 21.5109 25.759 21.279C25.759 21.0472 25.9476 20.8586 26.1795 20.8586C26.4113 20.8586 26.5999 21.0472 26.5999 21.279C26.5999 21.5109 26.4113 21.6995 26.1795 21.6995Z" fill="black"/>
<path d="M24 13.3438H11.3438V22.735H24" stroke="black" stroke-width="0.8"/>
</svg>
