<svg width="38" height="38" viewBox="0 0 38 38" fill="none" xmlns="http://www.w3.org/2000/svg">
<path d="M19.9742 23.0581H17.9741C16.4305 23.0581 15.175 21.8026 15.175 20.2591V13.4625" stroke="black" stroke-width="0.8"/>
<path d="M11.6804 26.7195C11.525 26.5641 11.2722 26.564 11.1168 26.7195C10.9619 26.8744 10.9608 27.127 11.1168 27.283C11.2718 27.438 11.5244 27.439 11.6804 27.283C11.8359 27.1276 11.8358 26.8749 11.6804 26.7195Z" fill="black"/>
<path d="M21.0003 11.3971C22.5461 11.3971 23.8024 12.648 23.8024 14.1992V25.001C23.8024 25.221 23.9808 25.3994 24.2009 25.3994C24.4209 25.3994 24.5993 25.221 24.5993 25.001V14.1992C24.5993 12.2182 22.9966 10.6003 21.0003 10.6003C19.1891 10.6003 17.6863 11.9453 17.4377 13.6889C17.1949 13.5545 16.9424 13.4384 16.6826 13.342C17.0836 11.3241 18.8538 9.79688 21.0003 9.79688C23.4278 9.79688 25.4026 11.7717 25.4026 14.1992V25.001C25.4026 25.221 25.5811 25.3994 25.8011 25.3994C26.0211 25.3994 26.1995 25.221 26.1995 25.001V14.1992C26.1996 11.3324 23.8672 9 21.0003 9C18.4583 9 16.4084 10.8001 15.9145 13.1188C15.6111 13.0544 15.3011 13.0165 15.0196 13.0055C14.8711 12.9985 15.1165 13.0009 11.3988 13.0006C10.5173 13.0006 9.8001 13.7178 9.8001 14.5993V25.2149C9.30943 25.6544 9 26.2923 9 27.0013C9 28.3174 10.0744 29.4141 11.4255 29.3994C11.456 29.4004 17.0638 29.4 18.6 29.4001C19.4814 29.4001 20.1985 28.683 20.1985 27.8015V18.2C20.1985 16.6358 19.4428 15.1825 18.1984 14.196C18.2001 12.6524 19.4563 11.3971 21.0003 11.3971ZM10.597 14.5993C10.597 14.1572 10.9567 13.7975 11.3988 13.7975H12.2007V24.7408C11.6956 24.5611 11.1287 24.5517 10.597 24.7408V14.5993ZM9.79692 27.0013C9.79692 26.118 10.5155 25.3994 11.3988 25.3994C12.2821 25.3994 13.0007 26.118 13.0007 27.0013C13.0007 27.8846 12.2821 28.6032 11.3988 28.6032C10.5155 28.6032 9.79692 27.8846 9.79692 27.0013ZM19.4016 18.2V27.8015C19.4016 28.2436 19.0421 28.6032 18.6 28.6032H13.1824C14.0683 27.6178 13.9894 26.1035 12.9975 25.2149V13.7976C14.8816 13.7988 14.8343 13.7946 14.9854 13.8017C17.3785 13.8954 19.4016 15.8772 19.4016 18.2Z" fill="black"/>
<path d="M14.6008 24.2008C14.6008 24.4208 14.7793 24.5992 14.9993 24.5992H18.1998C18.4198 24.5992 18.5982 24.4208 18.5982 24.2008C18.5982 23.9808 18.4198 23.8024 18.1998 23.8024H14.9993C14.7793 23.8024 14.6008 23.9807 14.6008 24.2008Z" fill="black"/>
<path d="M18.1998 25.4027H14.9993C14.7793 25.4027 14.6008 25.5811 14.6008 25.8011C14.6008 26.0212 14.7793 26.1996 14.9993 26.1996H18.1998C18.4198 26.1996 18.5982 26.0212 18.5982 25.8011C18.5982 25.5811 18.4198 25.4027 18.1998 25.4027Z" fill="black"/>
<path d="M18.1998 27.0029H14.9993C14.7793 27.0029 14.6008 27.1814 14.6008 27.4014C14.6008 27.6214 14.7793 27.7998 14.9993 27.7998H18.1998C18.4198 27.7998 18.5982 27.6214 18.5982 27.4014C18.5982 27.1814 18.4198 27.0029 18.1998 27.0029Z" fill="black"/>
<path d="M23.2023 26.7365V26.536C23.2023 25.9861 23.6509 25.5375 24.2008 25.5375H25.8009C26.3514 25.5375 26.7999 25.9862 26.7999 26.536V26.7365H23.2023Z" stroke="black" stroke-width="1.2"/>
<path d="M27.8015 26.6029H22.2005C21.5396 26.6029 21.002 27.1406 21.002 27.8015V28.2015C21.002 28.8624 21.5396 29.4001 22.2005 29.4001H27.8014C28.4623 29.4001 29 28.8624 29 28.2015V27.8015C29 27.1406 28.4624 26.6029 27.8015 26.6029ZM28.2031 28.2015C28.2031 28.4231 28.023 28.6032 27.8015 28.6032H22.2005C21.979 28.6032 21.7988 28.4231 21.7988 28.2015V27.8015C21.7988 27.58 21.979 27.3998 22.2005 27.3998H27.8014C28.0229 27.3998 28.2031 27.58 28.2031 27.8015V28.2015H28.2031Z" fill="black"/>
</svg>
